<svg width="803" height="577" viewBox="0 0 803 577" fill="none" xmlns="http://www.w3.org/2000/svg">
<path d="M623.469 432.643C623.469 434.027 623.196 435.397 622.666 436.675C622.135 437.953 621.357 439.115 620.377 440.093C619.397 441.072 618.233 441.848 616.952 442.377C615.671 442.907 614.299 443.179 612.912 443.179H183.328C180.528 443.179 177.843 442.069 175.864 440.093C173.884 438.117 172.772 435.437 172.771 432.643C172.771 431.259 173.044 429.889 173.575 428.611C174.106 427.332 174.883 426.171 175.863 425.192C176.844 424.214 178.007 423.437 179.288 422.908C180.569 422.378 181.942 422.106 183.328 422.106H612.912C614.299 422.106 615.672 422.378 616.952 422.908C618.233 423.437 619.397 424.214 620.377 425.192C621.358 426.171 622.135 427.332 622.666 428.611C623.196 429.889 623.469 431.259 623.469 432.643Z" fill="#A5C5E8"/>
<path d="M368.366 158.753L388.444 153.789C388.444 153.789 393.047 157.091 389.1 161.995C388.871 162.279 368.366 158.753 368.366 158.753Z" fill="#1C49B0"/>
<path d="M368.366 158.753L388.444 153.789C388.444 153.789 393.047 157.091 389.1 161.995C388.871 162.279 368.366 158.753 368.366 158.753Z" stroke="#1C49B0" stroke-width="1.19242" stroke-miterlimit="10"/>
<path d="M365.867 147.596L379.135 131.758C379.135 131.758 384.804 131.709 384.519 137.993C384.501 138.357 365.867 147.596 365.867 147.596Z" fill="#1C49B0"/>
<path d="M365.867 147.596L379.135 131.758C379.135 131.758 384.804 131.709 384.519 137.993C384.501 138.357 365.867 147.596 365.867 147.596Z" stroke="#1C49B0" stroke-width="1.19242" stroke-miterlimit="10"/>
<path d="M357.734 148.575L351.672 128.836C351.672 128.836 354.723 124.068 359.844 127.734C360.141 127.947 357.734 148.575 357.734 148.575Z" fill="#1C49B0"/>
<path d="M357.734 148.575L351.672 128.836C351.672 128.836 354.723 124.068 359.844 127.734C360.141 127.947 357.734 148.575 357.734 148.575Z" stroke="#1C49B0" stroke-width="1.19242" stroke-miterlimit="10"/>
<path d="M395.668 412.94L377.526 414.358C377.526 414.358 374.008 410.83 378.142 407.143C378.381 406.929 395.668 412.94 395.668 412.94Z" fill="#1C49B0"/>
<path d="M395.668 412.94L377.526 414.358C377.526 414.358 374.008 410.83 378.142 407.143C378.381 406.929 395.668 412.94 395.668 412.94Z" stroke="#1C49B0" stroke-width="1.19242" stroke-miterlimit="10"/>
<path d="M396.225 422.983L382.422 434.82C382.422 434.82 377.495 434.046 378.649 428.633C378.717 428.32 396.225 422.983 396.225 422.983Z" fill="#1C49B0"/>
<path d="M396.225 422.983L382.422 434.82C382.422 434.82 377.495 434.046 378.649 428.633C378.717 428.32 396.225 422.983 396.225 422.983Z" stroke="#1C49B0" stroke-width="1.19242" stroke-miterlimit="10"/>
<path d="M403.425 423.304L405.835 441.307C405.835 441.307 402.498 445.006 398.582 441.088C398.355 440.86 403.425 423.304 403.425 423.304Z" fill="#1C49B0"/>
<path d="M403.425 423.304L405.835 441.307C405.835 441.307 402.498 445.006 398.582 441.088C398.355 440.86 403.425 423.304 403.425 423.304Z" stroke="#1C49B0" stroke-width="1.19242" stroke-miterlimit="10"/>
<path d="M314.14 329.303H311.414L310.28 336.231H306.911L308.045 329.303H304.287V326.211H308.553L309.298 321.75H305.556V318.658H309.806L310.974 311.628H314.326L313.175 318.658H315.901L317.069 311.628H320.438L319.269 318.658H323.18V321.75H318.762L318.017 326.211H321.894V329.303H317.509L316.375 336.231H313.005L314.14 329.303ZM311.922 326.211H314.648L315.392 321.75H312.667L311.922 326.211Z" fill="#A5C5E8"/>
<path d="M257.496 427.508C256.07 427.492 254.707 426.919 253.698 425.912C252.689 424.905 252.116 423.545 252.099 422.121V401.77H189.131C187.705 401.754 186.342 401.181 185.333 400.174C184.325 399.168 183.751 397.807 183.734 396.384V375.234C183.734 371.777 184.601 368.917 186.333 366.655L246.102 291.437C247.301 289.975 248.401 289.011 249.4 288.544C250.399 288.08 251.765 287.847 253.498 287.846H283.683C285.109 287.862 286.472 288.435 287.48 289.442C288.489 290.449 289.063 291.809 289.08 293.233V369.847H306.271C307.697 369.864 309.06 370.437 310.069 371.444C311.077 372.45 311.651 373.811 311.668 375.234V396.384C311.651 397.807 311.077 399.168 310.069 400.174C309.06 401.181 307.697 401.753 306.271 401.77H289.08V422.121C289.063 423.544 288.489 424.905 287.481 425.912C286.472 426.918 285.109 427.491 283.683 427.508H257.496ZM253.098 369.847V333.136L223.913 369.847H253.098Z" fill="#A5C5E8"/>
<path d="M409.969 225.064C419.964 225.064 428.559 226.527 435.756 229.453C442.952 232.381 448.916 236.305 453.647 241.225C458.379 246.152 461.992 252.038 464.241 258.483C466.586 265.136 467.966 272.09 468.339 279.133C468.605 284.854 468.738 290.84 468.739 297.09C468.739 303.344 468.606 309.196 468.339 314.647C467.966 321.691 466.586 328.644 464.241 335.298C461.993 341.743 458.38 347.63 453.647 352.556C448.914 357.479 442.951 361.402 435.756 364.327C428.559 367.251 419.964 368.714 409.969 368.716C399.974 368.716 391.379 367.253 384.182 364.327C376.986 361.403 371.023 357.479 366.292 352.556C361.557 347.631 357.943 341.744 355.697 335.298C353.351 328.645 351.971 321.691 351.599 314.647C351.331 309.195 351.198 303.343 351.2 297.09C351.2 290.839 351.333 284.854 351.599 279.133C351.971 272.09 353.351 265.136 355.697 258.483C357.944 252.037 361.558 246.15 366.292 241.225C371.021 236.306 376.984 232.382 384.182 229.453C391.379 226.529 399.975 225.066 409.969 225.064ZM431.358 313.65C431.889 302.346 431.889 291.173 431.358 280.131C431.127 277.034 430.625 273.963 429.859 270.953C429.2 268.314 428.009 265.836 426.36 263.671C424.667 261.537 422.469 259.858 419.964 258.783C417.297 257.585 413.966 256.987 409.969 256.987C405.971 256.987 402.64 257.586 399.974 258.783C397.469 259.857 395.27 261.537 393.578 263.671C391.922 265.846 390.701 268.318 389.979 270.953C389.148 273.946 388.679 277.027 388.58 280.131C387.912 291.294 387.912 302.487 388.58 313.65C388.679 316.747 389.115 319.824 389.879 322.828C390.543 325.484 391.77 327.968 393.477 330.11C395.222 332.233 397.449 333.909 399.974 334.999C402.639 336.195 405.97 336.794 409.969 336.794C413.967 336.794 417.299 336.195 419.964 334.999C422.488 333.908 424.715 332.232 426.46 330.11C428.166 327.966 429.393 325.483 430.059 322.828C430.821 319.824 431.256 316.747 431.358 313.65Z" fill="#A5C5E8"/>
<path d="M565.389 272.502C563.963 272.486 562.6 271.913 561.592 270.906C560.583 269.899 560.009 268.539 559.992 267.115V246.764H497.025C495.598 246.748 494.235 246.175 493.227 245.169C492.218 244.162 491.644 242.801 491.628 241.378V220.229C491.628 216.772 492.494 213.912 494.227 211.65L553.995 136.432C555.195 134.97 556.294 134.005 557.293 133.539C558.293 133.074 559.659 132.841 561.391 132.84H591.576C593.003 132.857 594.366 133.43 595.374 134.436C596.383 135.443 596.957 136.804 596.973 138.227V214.842H614.164C615.59 214.859 616.953 215.431 617.962 216.438C618.971 217.445 619.545 218.805 619.561 220.229V241.378C619.545 242.801 618.971 244.162 617.962 245.168C616.953 246.175 615.59 246.748 614.164 246.764H596.973V267.115C596.956 268.539 596.383 269.899 595.374 270.906C594.366 271.913 593.003 272.486 591.576 272.502H565.389ZM560.992 214.842V178.131L531.807 214.842H560.992Z" fill="#A5C5E8"/>
<path d="M253.968 412.527C252.542 412.511 251.179 411.938 250.171 410.931C249.162 409.925 248.588 408.564 248.571 407.141V386.79H185.604C184.177 386.773 182.814 386.2 181.806 385.194C180.797 384.187 180.223 382.827 180.207 381.403V360.254C180.207 356.797 181.073 353.937 182.806 351.675L242.574 276.457C243.774 274.995 244.873 274.03 245.873 273.564C246.872 273.1 248.238 272.867 249.971 272.865H280.155C281.581 272.882 282.945 273.455 283.953 274.461C284.962 275.468 285.535 276.829 285.552 278.252V354.867H302.743C304.17 354.883 305.533 355.456 306.541 356.463C307.55 357.47 308.124 358.83 308.141 360.254V381.403C308.124 382.827 307.55 384.187 306.541 385.194C305.533 386.2 304.17 386.773 302.743 386.79H285.552V407.141C285.535 408.564 284.962 409.925 283.953 410.932C282.944 411.938 281.581 412.511 280.155 412.527H253.968ZM249.571 354.867V318.156L220.386 354.867H249.571Z" stroke="#1C49B0" stroke-width="1.19242" stroke-linecap="round" stroke-linejoin="round"/>
<path d="M392.292 232.329C402.286 232.329 410.882 233.792 418.078 236.719C425.275 239.646 431.238 243.57 435.969 248.49C440.702 253.417 444.315 259.303 446.564 265.749C448.909 272.402 450.289 279.356 450.661 286.399C450.927 292.119 451.06 298.105 451.062 304.355C451.062 310.609 450.928 316.461 450.661 321.913C450.288 328.956 448.909 335.909 446.564 342.562C444.316 349.008 440.702 354.895 435.969 359.821C431.237 364.744 425.273 368.668 418.078 371.593C410.882 374.517 402.287 375.98 392.292 375.982C382.297 375.982 373.701 374.519 366.505 371.593C359.309 368.669 353.345 364.745 348.615 359.821C343.88 354.896 340.266 349.009 338.02 342.562C335.673 335.91 334.294 328.956 333.922 321.913C333.654 316.46 333.52 310.608 333.522 304.355C333.522 298.105 333.656 292.119 333.922 286.399C334.294 279.355 335.673 272.401 338.02 265.749C340.266 259.302 343.88 253.415 348.615 248.49C353.343 243.571 359.307 239.647 366.505 236.719C373.702 233.794 382.297 232.331 392.292 232.329ZM413.681 320.915C414.212 309.611 414.212 298.438 413.681 287.396C413.45 284.299 412.948 281.228 412.182 278.219C411.522 275.579 410.332 273.102 408.683 270.936C406.99 268.803 404.792 267.123 402.286 266.048C399.619 264.851 396.287 264.252 392.292 264.252C388.294 264.252 384.962 264.851 382.297 266.048C379.791 267.122 377.593 268.802 375.9 270.936C374.245 273.111 373.023 275.584 372.302 278.219C371.471 281.211 371.001 284.292 370.903 287.396C370.234 298.559 370.234 309.752 370.903 320.915C371.002 324.012 371.437 327.089 372.202 330.093C372.865 332.749 374.092 335.233 375.8 337.375C377.544 339.498 379.772 341.174 382.297 342.264C384.961 343.461 388.293 344.059 392.292 344.059C396.29 344.059 399.621 343.461 402.286 342.264C404.811 341.173 407.038 339.497 408.783 337.375C410.489 335.232 411.716 332.749 412.381 330.093C413.143 327.089 413.579 324.012 413.681 320.915V320.915Z" stroke="#1C49B0" stroke-width="1.19242" stroke-linecap="round" stroke-linejoin="round"/>
<path d="M548.93 279.768C547.504 279.751 546.141 279.178 545.132 278.172C544.123 277.165 543.549 275.804 543.533 274.381V254.03H480.565C479.139 254.013 477.776 253.441 476.767 252.434C475.759 251.427 475.185 250.067 475.168 248.643V227.494C475.168 224.037 476.035 221.177 477.767 218.915L537.536 143.697C538.735 142.235 539.834 141.27 540.834 140.804C541.833 140.34 543.199 140.107 544.932 140.105H575.116C576.542 140.122 577.906 140.695 578.914 141.702C579.923 142.708 580.497 144.069 580.513 145.492V222.107H597.705C599.131 222.124 600.494 222.697 601.502 223.703C602.511 224.71 603.085 226.071 603.102 227.494V248.643C603.085 250.067 602.511 251.427 601.503 252.434C600.494 253.44 599.131 254.013 597.705 254.03H580.513V274.381C580.497 275.804 579.923 277.165 578.914 278.171C577.906 279.178 576.542 279.751 575.116 279.768H548.93ZM544.532 222.107V185.396L515.347 222.107H544.532Z" stroke="#1C49B0" stroke-width="1.19242" stroke-linecap="round" stroke-linejoin="round"/>
<path d="M184.358 421.24H605.503" stroke="#1C49B0" stroke-width="1.19242" stroke-linecap="round" stroke-linejoin="round"/>
<path d="M262.152 408.461L258.512 419.488L250.262 419.263L252.988 410.082" fill="white"/>
<path d="M262.152 408.461L258.512 419.488L250.262 419.263L252.988 410.082" stroke="#1C49B0" stroke-width="1.19242" stroke-linecap="round" stroke-linejoin="round"/>
<path d="M293.281 241.715L288.269 242.133C289.487 252.353 285.137 259.903 279.434 265.299L284.961 273.983C294.883 260.892 293.281 241.715 293.281 241.715Z" fill="white" stroke="#1C49B0" stroke-width="1.19242" stroke-linecap="round" stroke-linejoin="round"/>
<path d="M258.826 276.762L263.46 285.647C273.74 284.507 280.509 279.857 284.961 273.983L279.434 265.299C270.712 273.55 258.826 276.762 258.826 276.762Z" fill="#A5C5E8" stroke="#1C49B0" stroke-width="1.19242" stroke-linecap="round" stroke-linejoin="round"/>
<path d="M293.21 243.954L288.563 243.874C288.367 243.754 288.188 243.61 288.029 243.445C287.785 243.186 288.293 242.257 288.293 242.257C288.293 242.257 286.573 239.57 286.181 237.276C285.788 234.982 283.968 232.727 285.066 232.697C286.165 232.667 286.218 234.641 286.762 234.407C287.034 234.29 287.124 232.484 286.814 230.722C286.506 228.961 285.798 227.245 286.571 227.389C288.118 227.676 288.956 233.322 288.956 233.322C288.956 233.322 289.07 231.502 289.062 229.598C289.054 227.555 288.957 225.419 289.926 225.433C290.763 225.444 290.748 227.322 290.974 229.192C291.135 230.423 291.366 231.644 291.667 232.848C291.667 232.848 292.079 226.674 292.757 227.313C293.434 227.953 292.945 233.441 293.338 233.439C293.732 233.437 294.217 229.596 294.775 229.91C295.334 230.224 294.744 236.824 294.744 236.824C294.744 236.824 294.956 240.694 293.466 242.49C293.466 242.49 294.129 243.673 293.21 243.954Z" fill="#1C49B0"/>
<path d="M282.175 262.518L277.216 265.614L284.189 276.742L289.148 273.646L282.175 262.518Z" fill="#A5C5E8" stroke="#1C49B0" stroke-width="1.19242" stroke-linecap="round" stroke-linejoin="round"/>
<path d="M217.915 197.986C217.915 200.937 216.741 203.766 214.651 205.853C212.56 207.939 209.726 209.112 206.769 209.112H153.968C151.012 209.112 148.176 207.939 146.086 205.853C143.996 203.767 142.821 200.937 142.821 197.986C142.821 195.036 143.996 192.206 146.086 190.119C148.176 188.033 151.012 186.86 153.968 186.86H206.769C209.726 186.861 212.56 188.033 214.651 190.12C216.741 192.206 217.915 195.036 217.915 197.986Z" fill="white" stroke="#1C49B0" stroke-width="1.19242" stroke-linecap="round" stroke-linejoin="round"/>
<path d="M203.385 200.25H155.595C153.315 200.249 151.103 199.477 149.319 198.06C147.535 196.643 146.284 194.665 145.771 192.448C144.943 193.982 144.528 195.704 144.567 197.446C144.605 199.188 145.096 200.891 145.991 202.387C146.886 203.883 148.155 205.122 149.673 205.983C151.191 206.843 152.907 207.295 154.653 207.296H202.444C203.963 207.3 205.463 206.961 206.832 206.304C208.201 205.646 209.403 204.688 210.348 203.501C211.293 202.314 211.956 200.929 212.288 199.45C212.621 197.971 212.613 196.435 212.266 194.959C211.402 196.559 210.12 197.896 208.557 198.827C206.993 199.759 205.206 200.25 203.385 200.25Z" fill="#A5C5E8"/>
<path d="M241.383 202.084C241.384 204.814 240.845 207.517 239.799 210.04C238.752 212.562 237.218 214.854 235.284 216.785C233.35 218.715 231.054 220.246 228.527 221.291C226 222.336 223.291 222.873 220.556 222.873C217.821 222.873 215.112 222.336 212.585 221.291C210.058 220.246 207.762 218.715 205.828 216.784C203.894 214.854 202.36 212.562 201.313 210.04C200.267 207.517 199.728 204.814 199.729 202.084V193.887C199.729 191.157 200.267 188.454 201.314 185.931C202.36 183.409 203.894 181.117 205.828 179.187C207.762 177.256 210.058 175.725 212.585 174.68C215.112 173.636 217.821 173.098 220.556 173.098C223.291 173.098 225.999 173.636 228.527 174.68C231.054 175.725 233.35 177.256 235.284 179.187C237.218 181.117 238.752 183.409 239.798 185.931C240.845 188.454 241.383 191.157 241.383 193.887V202.084Z" fill="white" stroke="#1C49B0" stroke-width="1.19242" stroke-linecap="round" stroke-linejoin="round"/>
<path d="M226.795 211.715C224.374 211.715 221.976 211.24 219.739 210.315C217.501 209.39 215.469 208.034 213.756 206.325C212.044 204.616 210.686 202.587 209.76 200.354C208.833 198.121 208.356 195.728 208.357 193.311V186.054C208.355 183.668 208.819 181.305 209.723 179.097C207.22 180.781 205.169 183.054 203.752 185.715C202.335 188.376 201.595 191.344 201.598 194.357V201.614C201.598 205.88 203.082 210.014 205.798 213.308C208.514 216.602 212.292 218.852 216.486 219.674C220.68 220.495 225.029 219.837 228.791 217.812C232.553 215.787 235.493 212.52 237.108 208.57C234.063 210.626 230.471 211.721 226.795 211.715Z" fill="#A5C5E8"/>
<path d="M309.439 213.796C309.439 216.872 308.832 219.918 307.653 222.76C306.474 225.602 304.745 228.184 302.566 230.359C300.387 232.534 297.799 234.26 294.952 235.437C292.105 236.614 289.053 237.219 285.971 237.219H244.317C241.235 237.219 238.183 236.613 235.336 235.436C232.489 234.259 229.902 232.534 227.723 230.359C225.543 228.184 223.815 225.602 222.636 222.76C221.456 219.918 220.849 216.872 220.85 213.796V182.175C220.85 179.099 221.456 176.053 222.636 173.211C223.815 170.37 225.544 167.788 227.723 165.613C229.902 163.438 232.489 161.712 235.336 160.535C238.183 159.358 241.235 158.752 244.317 158.753H285.971C289.053 158.752 292.105 159.358 294.952 160.535C297.799 161.712 300.386 163.437 302.566 165.612C304.745 167.787 306.474 170.369 307.653 173.211C308.832 176.053 309.439 179.099 309.439 182.175V213.796Z" fill="white" stroke="#1C49B0" stroke-width="1.19242" stroke-linecap="round" stroke-linejoin="round"/>
<path d="M293.861 223.38H255.145C252.281 223.38 249.444 222.817 246.798 221.723C244.151 220.629 241.747 219.026 239.721 217.004C237.696 214.982 236.089 212.582 234.993 209.941C233.897 207.3 233.333 204.469 233.333 201.61V172.219C233.332 169.486 233.847 166.777 234.853 164.235C231.266 166.056 228.255 168.833 226.151 172.257C224.047 175.681 222.934 179.619 222.935 183.635V213.027C222.934 215.886 223.498 218.717 224.594 221.358C225.691 223.999 227.297 226.399 229.323 228.421C231.348 230.442 233.753 232.046 236.399 233.14C239.045 234.234 241.882 234.797 244.746 234.797H283.462C287.84 234.797 292.117 233.482 295.736 231.023C299.355 228.564 302.149 225.075 303.755 221.01C300.691 222.571 297.3 223.383 293.861 223.38Z" fill="#A5C5E8"/>
<path d="M313.067 143.234C309.728 143.209 306.412 143.794 303.284 144.961C303.241 144.96 303.199 144.955 303.156 144.955C301.245 144.955 299.415 146.14 297.724 148.305C296.211 149.719 295.212 151.355 294.889 153.115C290.487 162.609 287.559 179.457 287.559 198.664C287.559 228.326 294.542 252.371 303.156 252.371C303.988 252.363 304.806 252.15 305.536 251.75C307.991 252.413 310.524 252.745 313.067 252.737C323.171 252.737 331.364 247.755 331.364 241.611V154.361C331.364 148.217 323.171 143.234 313.067 143.234Z" fill="white" stroke="#1C49B0" stroke-width="1.19242" stroke-linecap="round" stroke-linejoin="round"/>
<path d="M276.781 212.445C276.781 212.807 276.636 213.155 276.379 213.412C276.122 213.668 275.774 213.812 275.411 213.813C275.048 213.811 274.701 213.667 274.445 213.41C274.189 213.154 274.045 212.807 274.045 212.445V178.482C274.046 178.121 274.19 177.774 274.446 177.519C274.702 177.264 275.049 177.12 275.411 177.119C275.773 177.119 276.121 177.262 276.378 177.518C276.635 177.773 276.78 178.12 276.781 178.482V212.445Z" fill="#A5C5E8"/>
<path d="M266.902 212.445C266.902 212.807 266.758 213.155 266.501 213.412C266.244 213.668 265.895 213.812 265.532 213.813C265.169 213.811 264.822 213.667 264.566 213.41C264.31 213.154 264.166 212.807 264.167 212.445V178.482C264.167 178.121 264.312 177.774 264.567 177.519C264.823 177.264 265.17 177.12 265.532 177.119C265.895 177.119 266.242 177.262 266.499 177.518C266.756 177.773 266.901 178.12 266.902 178.482V212.445Z" fill="#A5C5E8"/>
<path d="M339.55 198.664C339.55 228.326 332.567 252.371 323.953 252.371C315.339 252.371 308.356 228.326 308.356 198.664C308.356 169.001 315.339 144.956 323.953 144.956C332.567 144.956 339.55 169.001 339.55 198.664Z" fill="#1C49B0" stroke="#1C49B0" stroke-width="1.19242" stroke-miterlimit="10"/>
<path d="M320.32 207.175C320.32 207.725 320.1 208.253 319.71 208.642C319.32 209.032 318.791 209.25 318.24 209.25C317.967 209.25 317.696 209.197 317.444 209.092C317.192 208.988 316.962 208.835 316.769 208.642C316.576 208.45 316.423 208.221 316.318 207.969C316.214 207.717 316.16 207.447 316.16 207.175V189.012C316.16 188.739 316.214 188.469 316.318 188.217C316.423 187.965 316.576 187.737 316.769 187.544C316.962 187.351 317.192 187.198 317.444 187.094C317.696 186.99 317.967 186.936 318.24 186.936C318.791 186.936 319.32 187.155 319.71 187.544C320.1 187.933 320.32 188.461 320.32 189.012V207.175Z" fill="#1C49B0"/>
<path d="M332.018 200.169C332.018 200.719 331.799 201.247 331.409 201.637C331.019 202.026 330.49 202.245 329.938 202.245C329.387 202.245 328.858 202.026 328.468 201.637C328.078 201.247 327.858 200.719 327.858 200.169V182.006C327.858 181.455 328.078 180.927 328.468 180.538C328.858 180.149 329.387 179.93 329.938 179.93C330.49 179.93 331.019 180.149 331.409 180.538C331.799 180.927 332.018 181.455 332.018 182.006V200.169Z" fill="#1C49B0"/>
<path d="M288.539 403.66L286.914 413.066L277.945 414.494L279.96 405.282" fill="white"/>
<path d="M288.539 403.66L286.914 413.066L277.945 414.494L279.96 405.282" stroke="#1C49B0" stroke-width="1.19242" stroke-linecap="round" stroke-linejoin="round"/>
<path d="M247.601 272.173C247.601 272.173 234.078 274.197 235.16 287.29C235.527 291.729 243.138 330.078 243.138 330.078L278.638 326.705C278.638 326.705 269.103 277.841 263.018 273.792C256.932 269.743 247.601 272.173 247.601 272.173Z" fill="#1C49B0"/>
<path d="M243.138 330.078C243.138 330.078 244.852 340.913 248.683 351.134C254.455 366.536 259.401 374.189 258.014 385.605C255.937 402.708 249.413 412.353 249.413 412.353L264.427 414.753C264.427 414.753 273.785 383.357 272.399 378.859C269.965 357.803 267.719 325.235 267.719 325.235L243.138 330.078Z" fill="#1C49B0"/>
<path d="M276.203 321.372C276.203 321.372 294.118 347.461 294.93 365.885C295.591 380.902 289.643 407.941 289.643 407.941L277.103 407.546C277.103 407.546 281.585 373.15 278.812 364.848C270.698 350.27 258.534 332.5 258.534 332.5L276.203 321.372Z" fill="#1C49B0"/>
<path d="M243.95 277.74C243.95 277.74 253.078 275.006 256.527 284.32C259.975 293.634 256.926 300.183 251.383 301.182C239.817 303.266 231.575 279.158 243.95 277.74Z" fill="#A5C5E8"/>
<path d="M266.162 285.946C266.472 286.913 262.409 289.382 262.409 289.382C261.78 287.748 261.018 286.169 260.132 284.658C259.409 283.473 258.584 282.352 257.667 281.309C256.121 279.866 254.092 277.841 251.82 276.839C250.995 276.457 250.136 276.152 249.255 275.927C247.438 275.462 247.322 273.628 249.173 273.311C250.089 273.035 251.044 272.908 252 272.936C252.967 272.964 253.927 273.109 254.86 273.366C255.837 273.564 256.789 273.874 257.696 274.289C258.585 274.707 259.436 275.202 260.238 275.77C261.107 276.302 264.427 280.54 266.162 285.946Z" fill="#A5C5E8"/>
<path d="M247.934 255.899L246.552 264.817L240.292 259.081L238.069 254.651L240.57 252.294C240.57 252.294 250.018 244.666 251.547 242.932C253.075 241.199 258.076 250.896 253.768 254.918" fill="#1C49B0"/>
<path d="M245.505 263.264L246.283 274.197C246.283 274.197 250.187 276.171 252.419 275.867C253.738 275.693 254.941 275.021 255.779 273.989L252.165 263.331L245.505 263.264Z" fill="white" stroke="#1C49B0" stroke-width="1.19242" stroke-linecap="round" stroke-linejoin="round"/>
<path d="M252.923 252.842L246.229 255.48C246.229 255.48 246.926 258.522 246.782 258.875C246.78 258.876 244.869 260.028 244.867 260.029C243.938 260.672 243.848 262.147 244.667 263.326C245.485 264.503 246.9 264.937 247.83 264.293C248.041 264.144 248.215 263.948 248.337 263.72C250.263 265.666 251.649 266.556 254.195 266.556C259.024 266.556 252.923 252.842 252.923 252.842Z" fill="white" stroke="#1C49B0" stroke-width="0.794946" stroke-linecap="round" stroke-linejoin="round"/>
<path d="M270.726 241.425H266.872C267.32 250.09 262.775 258.098 257.563 264.423L264.398 270.092C270.972 256.217 270.726 241.425 270.726 241.425Z" fill="white" stroke="#1C49B0" stroke-width="1.19242" stroke-linecap="round" stroke-linejoin="round"/>
<path d="M242.697 278.063C241.783 279.141 240.991 280.316 240.335 281.566C239.081 283.922 239.081 287.168 241.11 288.383C247.601 292.838 253.687 285.562 257.612 280.831C258.424 279.847 259.181 278.855 259.893 277.806C260.605 276.759 261.271 275.734 261.896 274.644C262.355 273.89 262.789 273.239 263.201 272.472C263.625 271.684 264.021 270.889 264.398 270.092L257.564 264.423C257.469 264.537 244.761 275.817 242.697 278.063Z" fill="#A5C5E8" stroke="#1C49B0" stroke-width="1.19242" stroke-linecap="round" stroke-linejoin="round"/>
<path d="M258.681 260.075L254.94 264.562L265.048 272.958L268.789 268.47L258.681 260.075Z" fill="#A5C5E8" stroke="#1C49B0" stroke-width="1.19242" stroke-linecap="round" stroke-linejoin="round"/>
<path d="M274.885 317.386C274.885 317.386 253.213 323.363 241.566 321.928L242.416 332.327C242.416 332.327 264.923 326.804 275.459 321.305C275.645 321.207 275.468 320.714 275.468 320.714L274.885 317.386Z" fill="white" stroke="#1C49B0" stroke-width="1.19242" stroke-linecap="round" stroke-linejoin="round"/>
<path d="M284.931 419.838L284.119 418.827L276.114 418.288L275.431 420.48C275.431 420.48 298.657 423.112 299.063 421.39C299.192 420.841 299.321 420.519 299.279 420.242L284.931 419.838Z" fill="#A5C5E8" stroke="#1C49B0" stroke-width="1.19242" stroke-linecap="round" stroke-linejoin="round"/>
<path d="M284.931 419.838L299.279 420.242C299.189 419.652 300.196 419.017 296.882 417.088C295.084 416.042 291.29 415.982 289.934 414.963C288.517 413.88 287.323 412.534 286.418 410.998C286.418 410.998 283.342 414.743 281.617 414.035C279.894 413.326 277.865 412.685 277.865 412.685L276.114 418.288L284.119 418.827L284.931 419.838Z" fill="#A5C5E8" stroke="#1C49B0" stroke-width="1.19242" stroke-linecap="round" stroke-linejoin="round"/>
<path d="M256.871 425.815L256.099 424.772L248.122 423.925L247.353 426.087C247.353 426.087 270.46 429.618 270.932 427.913C271.083 427.369 271.224 427.052 271.193 426.774L256.871 425.815Z" fill="#A5C5E8" stroke="#1C49B0" stroke-width="1.19242" stroke-linecap="round" stroke-linejoin="round"/>
<path d="M256.871 425.815L271.193 426.774C271.126 426.181 272.157 425.585 268.921 423.53C267.166 422.414 263.375 422.208 262.061 421.136C260.687 420 259.546 418.608 258.702 417.038C258.702 417.038 255.482 420.661 253.786 419.887C252.091 419.111 250.089 418.393 250.089 418.393L248.122 423.925L256.1 424.772L256.871 425.815Z" fill="#A5C5E8" stroke="#1C49B0" stroke-width="1.19242" stroke-linecap="round" stroke-linejoin="round"/>
<path d="M271.31 243.169L266.588 242.959C266.393 242.832 266.214 242.68 266.057 242.508C265.816 242.238 266.358 241.308 266.358 241.308C266.358 241.308 264.683 238.528 264.348 236.185C264.012 233.841 262.223 231.498 263.341 231.498C264.46 231.498 264.46 233.507 265.019 233.283C265.298 233.172 265.44 231.338 265.174 229.538C264.909 227.739 264.236 225.975 265.019 226.142C266.584 226.477 267.28 232.24 267.28 232.24C267.28 232.24 267.446 230.393 267.49 228.457C267.54 226.38 267.499 224.205 268.484 224.246C269.335 224.28 269.268 226.189 269.446 228.097C269.575 229.353 269.776 230.6 270.049 231.833C270.049 231.833 270.64 225.566 271.31 226.235C271.981 226.905 271.331 232.472 271.732 232.48C272.132 232.489 272.732 228.597 273.291 228.932C273.851 229.266 273.068 235.961 273.068 235.961C273.068 235.961 273.176 239.903 271.611 241.687C271.611 241.687 272.253 242.909 271.31 243.169Z" fill="#1C49B0"/>
<path d="M265.051 295.196C265.549 296.489 265.518 297.704 264.982 297.909C264.446 298.115 263.608 297.234 263.109 295.941C262.612 294.648 262.642 293.433 263.179 293.227C263.714 293.022 264.552 293.903 265.051 295.196Z" fill="white"/>
<path d="M269.471 292.515C269.968 293.808 269.938 295.023 269.402 295.229C268.866 295.434 268.028 294.553 267.529 293.26C267.032 291.967 267.062 290.752 267.599 290.546C268.134 290.341 268.972 291.222 269.471 292.515Z" fill="white"/>
<path d="M241.203 320.738H249.869C250.558 320.738 251.22 321.011 251.707 321.498C252.195 321.984 252.469 322.644 252.469 323.333V340.803C252.469 341.491 252.195 342.151 251.707 342.638C251.22 343.124 250.559 343.398 249.869 343.398H241.203C240.514 343.398 239.852 343.124 239.365 342.638C238.877 342.151 238.604 341.491 238.604 340.803V323.333C238.604 322.644 238.877 321.984 239.365 321.498C239.853 321.011 240.514 320.738 241.203 320.738Z" fill="#DCE8F6" stroke="#1C49B0" stroke-width="1.19242" stroke-linecap="round" stroke-linejoin="round"/>
<path d="M605.769 358.392C605.71 357.609 605.651 356.872 605.599 356.175C605.544 355.478 605.538 354.823 605.505 354.219C605.477 353.615 605.446 353.058 605.449 352.555C605.438 351.895 605.43 351.34 605.431 350.874C606.584 349.743 614.849 340.987 608.054 328.544C608.054 328.544 595.499 337.614 605.204 350.869C605.134 351.326 605.055 351.879 604.979 352.531C604.852 353.537 604.758 354.764 604.665 356.176C604.633 356.881 604.603 357.632 604.572 358.424C604.524 359.219 604.645 360.048 604.681 360.916C604.73 361.593 604.768 362.299 604.82 363.02C604.355 362.409 603.742 361.606 603.123 360.798C602.814 360.392 602.503 359.983 602.21 359.606C602.097 359.469 601.989 359.335 601.883 359.204C603.761 341.964 591.255 339.531 591.255 339.531C591.563 357.71 598.937 359.286 601.213 359.338C601.379 359.543 601.556 359.758 601.744 359.987C602.035 360.365 602.346 360.769 602.65 361.171C603.268 361.978 603.882 362.784 604.344 363.39C604.412 363.461 604.439 363.552 604.514 363.603C604.586 363.659 604.655 363.71 604.717 363.761C604.786 363.811 604.834 363.846 604.89 363.89C604.982 364.738 605.078 365.606 605.172 366.502C605.229 366.997 605.271 367.499 605.343 368.005C605.421 368.508 605.502 369.019 605.582 369.535C605.747 370.567 605.914 371.622 606.083 372.693C606.294 373.772 606.493 374.831 606.738 375.927C606.854 376.446 606.978 376.969 607.098 377.492C607.029 377.353 606.952 377.219 606.868 377.089C606.721 376.844 606.572 376.596 606.42 376.347C606.122 375.851 605.822 375.351 605.54 374.885C605.234 374.432 604.947 374.011 604.702 373.647C604.648 373.559 604.589 373.474 604.525 373.393C604.45 373.323 604.376 373.261 604.311 373.196C604.248 373.14 604.196 373.103 604.139 373.055C603.772 370.376 601.507 359.8 588.451 357.408C588.451 357.408 587.616 372.832 604.008 373.663C604.019 373.69 604.031 373.715 604.039 373.745C604.09 373.833 604.148 373.918 604.211 373.998C604.454 374.354 604.732 374.768 605.036 375.21C605.31 375.67 605.609 376.159 605.903 376.655C606.05 376.899 606.199 377.144 606.345 377.386C606.489 377.62 606.62 377.862 606.736 378.11C606.976 378.594 607.196 379.043 607.388 379.426C607.426 379.522 607.473 379.613 607.53 379.699C607.568 379.746 607.605 379.788 607.642 379.834C608.119 381.84 608.602 383.862 608.959 385.9C609.184 387.02 609.315 388.149 609.469 389.269C609.541 389.83 609.568 390.396 609.62 390.953C609.661 391.516 609.723 392.075 609.72 392.633C609.722 392.76 609.724 392.882 609.726 393.011C609.688 392.935 609.651 392.858 609.608 392.781C609.427 392.428 609.228 392.085 609.011 391.753C608.806 391.393 608.535 391.061 608.289 390.702C608.019 390.365 607.744 390.018 607.441 389.695C607.147 389.415 606.872 389.109 606.554 388.854C606.632 388.828 606.704 388.812 606.782 388.787C606.782 388.787 602.518 376.051 588.7 378.427C588.7 378.427 591.949 392.994 605.86 389.059C605.937 389.123 606.013 389.182 606.088 389.245C606.408 389.513 606.713 389.801 606.999 390.107C607.287 390.413 607.548 390.746 607.81 391.067C608.045 391.409 608.304 391.728 608.5 392.074C608.716 392.408 608.909 392.739 609.075 393.063C609.254 393.382 609.392 393.695 609.529 393.982C609.605 394.124 609.634 394.277 609.713 394.4C609.725 394.418 609.734 394.437 609.745 394.455C609.748 394.958 609.746 395.458 609.71 395.955C609.686 396.501 609.667 397.044 609.643 397.584C609.596 398.125 609.531 398.661 609.478 399.189C609.425 399.721 609.369 400.245 609.314 400.766C609.232 401.286 609.149 401.799 609.066 402.305C608.896 403.321 608.756 404.317 608.525 405.27C608.309 406.227 608.106 407.158 607.907 408.063C607.849 408.273 607.794 408.48 607.735 408.688C607.686 408.486 607.631 408.282 607.564 408.081C607.302 407.266 606.925 406.493 606.445 405.785C606.393 405.72 606.37 405.631 606.304 405.582C606.238 405.528 606.175 405.482 606.117 405.438C606.037 405.379 605.971 405.339 605.904 405.294C605.781 403.881 604.481 393.53 593.013 392.353C593.013 392.353 592.277 405.918 605.653 405.461C605.682 405.541 605.71 405.62 605.743 405.716C605.767 405.782 605.79 405.854 605.816 405.928C605.842 405.999 605.91 406.049 605.947 406.122C606.396 406.783 606.747 407.504 606.992 408.265C607.126 408.667 607.221 409.081 607.278 409.501C607.309 409.692 607.329 409.886 607.337 410.079C607.338 410.108 607.338 410.132 607.337 410.16C607.294 410.322 607.251 410.485 607.208 410.644C607.094 411.056 606.983 411.463 606.872 411.86C606.756 412.25 606.623 412.63 606.534 413.012C606.345 413.773 606.166 414.494 605.996 415.173C605.676 416.538 605.324 417.706 605.042 418.673C604.484 420.611 604.186 421.729 604.186 421.729C604.186 421.729 604.66 420.679 605.465 418.826C605.866 417.894 606.365 416.772 606.855 415.449C607.033 414.997 607.218 414.517 607.411 414.024C607.454 414.003 607.49 413.986 607.539 413.962C607.606 413.93 607.679 413.894 607.755 413.855C607.833 413.822 607.877 413.739 607.952 413.686C608.087 413.551 608.234 413.428 608.39 413.318C608.558 413.204 608.739 413.083 608.923 412.958C609.111 412.833 609.294 412.694 609.496 412.572C609.704 412.471 609.918 412.361 610.13 412.252C610.335 412.136 610.55 412.036 610.772 411.955C610.991 411.87 611.209 411.79 611.411 411.714C611.613 411.639 611.82 411.578 612.03 411.531C612.228 411.484 612.411 411.419 612.585 411.394C612.671 411.387 612.756 411.373 612.839 411.351C612.877 411.33 612.911 411.314 612.951 411.296C615.313 411.922 626.25 414.087 633.508 402.702C633.508 402.702 619.645 396.204 612.675 410.766C612.61 410.776 612.542 410.798 612.47 410.804C612.283 410.833 612.089 410.898 611.877 410.948C611.656 410.999 611.438 411.063 611.224 411.142C611.003 411.223 610.774 411.309 610.541 411.399C610.308 411.487 610.081 411.592 609.862 411.712C609.637 411.826 609.416 411.941 609.194 412.056C608.979 412.18 608.785 412.326 608.588 412.455C608.394 412.587 608.205 412.716 608.026 412.839C607.941 412.892 607.862 412.954 607.79 413.023C608.015 412.376 608.164 411.675 608.37 410.965C608.597 410.126 608.834 409.254 609.081 408.35C609.279 407.432 609.49 406.486 609.704 405.515C609.941 404.546 610.085 403.529 610.257 402.493C610.339 401.978 610.424 401.454 610.509 400.927C610.54 400.654 610.568 400.375 610.596 400.099C610.629 400.087 610.656 400.074 610.69 400.063C610.747 400.038 610.769 399.973 610.82 399.937C611.173 399.585 611.644 399.117 612.109 398.65C612.58 398.181 613.047 397.712 613.399 397.358C613.426 397.324 613.462 397.301 613.489 397.273C616.495 396.838 626.634 394.441 629.06 381.763C629.06 381.763 613.556 380.811 612.654 397.253C612.359 397.549 612.023 397.888 611.685 398.222C611.335 398.57 610.988 398.917 610.686 399.218C610.739 398.707 610.801 398.194 610.844 397.671C610.867 397.116 610.891 396.557 610.914 395.998C610.995 394.875 610.942 393.737 610.924 392.586C610.925 392.014 610.86 391.441 610.821 390.863C610.768 390.289 610.742 389.707 610.667 389.13C610.549 388.275 610.433 387.415 610.293 386.56C610.309 386.466 610.32 386.371 610.326 386.276C610.39 385.738 610.414 385.111 610.533 384.436C610.641 383.763 610.741 383.045 610.886 382.33C611.145 380.9 611.466 379.478 611.712 378.411C611.748 378.286 611.777 378.159 611.799 378.03C611.803 377.961 611.807 377.894 611.81 377.828C613.313 377.082 624.314 371.103 619.478 357.653C619.478 357.653 604.24 367.025 611.38 377.524C611.375 377.537 611.37 377.549 611.363 377.562C611.315 377.666 611.267 377.775 611.214 377.892C611.167 378.009 611.165 378.144 611.125 378.276C610.874 379.348 610.553 380.776 610.292 382.22C610.145 382.939 610.044 383.67 609.937 384.352C609.93 384.401 609.927 384.449 609.919 384.498C609.548 382.616 609.101 380.768 608.672 378.946C608.405 377.846 608.162 376.755 607.919 375.684C607.678 374.613 607.473 373.512 607.267 372.476C607.101 371.42 606.936 370.376 606.776 369.357C606.694 368.848 606.616 368.344 606.535 367.846C606.467 367.347 606.425 366.851 606.369 366.363C606.275 365.486 606.185 364.638 606.095 363.807C606.127 363.567 606.173 363.329 606.235 363.095C606.302 362.789 606.385 362.487 606.483 362.19C606.574 361.889 606.681 361.592 606.805 361.303C606.91 361.013 607.057 360.742 607.177 360.472C607.42 359.99 607.694 359.523 607.996 359.075C608.054 358.973 608.139 358.896 608.185 358.796C608.231 358.695 608.277 358.597 608.315 358.509C608.317 358.503 608.321 358.499 608.322 358.491C610.716 357.75 618.395 354.588 616.356 345.083C616.356 345.083 605.351 347.664 607.608 358.564C607.575 358.625 607.537 358.682 607.495 358.736C607.179 359.206 606.893 359.696 606.638 360.202C606.51 360.487 606.36 360.769 606.246 361.075C606.135 361.342 606.038 361.615 605.95 361.894C605.929 361.54 605.911 361.191 605.887 360.849C605.82 359.992 605.817 359.172 605.769 358.392Z" fill="#1C49B0"/>
<path d="M173.334 301.982C173.334 302.353 173.224 302.716 173.018 303.024C172.811 303.333 172.518 303.573 172.174 303.715C171.831 303.857 171.453 303.894 171.089 303.822C170.724 303.75 170.389 303.571 170.127 303.309C169.864 303.046 169.685 302.712 169.612 302.348C169.54 301.985 169.577 301.608 169.719 301.265C169.861 300.922 170.102 300.629 170.411 300.423C170.72 300.217 171.084 300.107 171.455 300.107C171.954 300.107 172.431 300.305 172.784 300.656C173.136 301.008 173.334 301.485 173.334 301.982Z" fill="#A5C5E8"/>
<path d="M184.024 301.982C184.024 302.353 183.913 302.716 183.707 303.024C183.501 303.333 183.207 303.573 182.864 303.715C182.52 303.857 182.143 303.894 181.778 303.822C181.414 303.75 181.079 303.571 180.816 303.309C180.553 303.046 180.374 302.712 180.302 302.348C180.229 301.985 180.266 301.608 180.409 301.265C180.551 300.922 180.792 300.629 181.101 300.423C181.41 300.217 181.773 300.107 182.145 300.107C182.643 300.107 183.121 300.305 183.473 300.656C183.826 301.008 184.024 301.485 184.024 301.982Z" fill="#A5C5E8"/>
<path d="M194.714 301.982C194.714 302.353 194.603 302.716 194.397 303.025C194.19 303.333 193.897 303.573 193.553 303.715C193.21 303.857 192.832 303.894 192.468 303.822C192.103 303.749 191.768 303.571 191.506 303.308C191.243 303.046 191.064 302.712 190.992 302.348C190.919 301.984 190.957 301.607 191.099 301.264C191.241 300.921 191.482 300.629 191.791 300.423C192.101 300.217 192.464 300.107 192.836 300.107C193.082 300.107 193.327 300.156 193.554 300.25C193.782 300.344 193.989 300.482 194.164 300.657C194.338 300.831 194.476 301.037 194.571 301.265C194.665 301.492 194.714 301.736 194.714 301.982Z" fill="#A5C5E8"/>
<path d="M205.404 301.982C205.404 302.353 205.294 302.716 205.087 303.024C204.881 303.333 204.587 303.573 204.244 303.715C203.901 303.857 203.523 303.894 203.158 303.822C202.794 303.749 202.459 303.571 202.196 303.309C201.934 303.046 201.755 302.712 201.682 302.348C201.61 301.985 201.647 301.607 201.789 301.265C201.931 300.922 202.172 300.629 202.481 300.423C202.79 300.217 203.153 300.107 203.525 300.107C203.772 300.107 204.016 300.156 204.244 300.25C204.472 300.344 204.679 300.482 204.854 300.656C205.028 300.83 205.167 301.037 205.261 301.265C205.355 301.492 205.404 301.736 205.404 301.982Z" fill="#A5C5E8"/>
<path d="M216.095 301.982C216.095 302.353 215.985 302.716 215.778 303.024C215.572 303.333 215.278 303.573 214.935 303.715C214.592 303.857 214.214 303.894 213.849 303.822C213.485 303.749 213.15 303.571 212.887 303.309C212.624 303.046 212.445 302.712 212.373 302.348C212.301 301.984 212.338 301.607 212.48 301.265C212.622 300.922 212.863 300.629 213.172 300.423C213.481 300.217 213.844 300.107 214.216 300.107C214.714 300.107 215.192 300.305 215.544 300.656C215.897 301.008 216.095 301.485 216.095 301.982Z" fill="#A5C5E8"/>
<path d="M226.784 301.982C226.784 302.353 226.674 302.716 226.468 303.025C226.261 303.333 225.968 303.573 225.624 303.715C225.281 303.857 224.903 303.894 224.538 303.822C224.174 303.749 223.839 303.571 223.576 303.308C223.314 303.046 223.135 302.712 223.062 302.348C222.99 301.984 223.027 301.607 223.17 301.264C223.312 300.921 223.553 300.629 223.862 300.423C224.171 300.217 224.535 300.107 224.906 300.107C225.405 300.107 225.882 300.305 226.234 300.657C226.587 301.008 226.784 301.485 226.784 301.982Z" fill="#A5C5E8"/>
<path d="M173.334 313.652C173.334 314.023 173.224 314.386 173.018 314.694C172.812 315.003 172.518 315.243 172.175 315.385C171.832 315.528 171.454 315.565 171.089 315.492C170.725 315.42 170.39 315.242 170.127 314.979C169.864 314.717 169.685 314.383 169.612 314.019C169.54 313.655 169.577 313.278 169.719 312.935C169.861 312.593 170.102 312.3 170.411 312.094C170.72 311.888 171.084 311.777 171.455 311.778C171.953 311.778 172.431 311.975 172.783 312.327C173.135 312.678 173.334 313.155 173.334 313.652Z" fill="#A5C5E8"/>
<path d="M184.024 313.652C184.024 314.023 183.914 314.386 183.707 314.694C183.501 315.003 183.208 315.243 182.864 315.385C182.521 315.528 182.143 315.565 181.779 315.492C181.414 315.42 181.079 315.242 180.816 314.979C180.553 314.717 180.374 314.383 180.302 314.019C180.229 313.655 180.266 313.278 180.409 312.935C180.551 312.593 180.792 312.3 181.101 312.094C181.41 311.888 181.773 311.777 182.145 311.778C182.643 311.778 183.12 311.975 183.473 312.327C183.825 312.678 184.023 313.155 184.024 313.652Z" fill="#A5C5E8"/>
<path d="M194.714 313.652C194.714 314.023 194.604 314.386 194.397 314.694C194.191 315.003 193.897 315.243 193.554 315.385C193.211 315.528 192.833 315.565 192.468 315.492C192.104 315.42 191.769 315.241 191.506 314.979C191.243 314.717 191.064 314.382 190.992 314.019C190.919 313.655 190.956 313.277 191.099 312.935C191.241 312.592 191.482 312.299 191.791 312.093C192.101 311.887 192.464 311.777 192.836 311.778C193.334 311.778 193.811 311.976 194.163 312.327C194.515 312.678 194.713 313.155 194.714 313.652Z" fill="#A5C5E8"/>
<path d="M205.404 313.652C205.404 314.023 205.294 314.386 205.088 314.694C204.881 315.003 204.588 315.243 204.245 315.385C203.901 315.527 203.523 315.565 203.159 315.492C202.794 315.42 202.459 315.242 202.197 314.979C201.934 314.717 201.755 314.383 201.682 314.019C201.61 313.655 201.647 313.278 201.789 312.935C201.931 312.593 202.172 312.3 202.481 312.094C202.79 311.888 203.153 311.778 203.525 311.778C204.023 311.778 204.501 311.975 204.853 312.327C205.205 312.678 205.404 313.155 205.404 313.652Z" fill="#A5C5E8"/>
<path d="M216.095 313.652C216.095 314.023 215.985 314.386 215.779 314.694C215.572 315.003 215.279 315.243 214.935 315.385C214.592 315.527 214.214 315.565 213.85 315.492C213.485 315.42 213.15 315.242 212.887 314.979C212.625 314.717 212.446 314.383 212.373 314.019C212.301 313.655 212.338 313.278 212.48 312.935C212.622 312.593 212.863 312.3 213.172 312.094C213.481 311.887 213.844 311.777 214.216 311.778C214.714 311.778 215.192 311.975 215.544 312.327C215.896 312.678 216.094 313.155 216.095 313.652Z" fill="#A5C5E8"/>
<path d="M226.784 313.652C226.784 314.023 226.674 314.386 226.468 314.694C226.261 315.003 225.968 315.243 225.624 315.385C225.281 315.528 224.903 315.565 224.538 315.492C224.174 315.42 223.839 315.241 223.576 314.979C223.313 314.717 223.134 314.382 223.062 314.019C222.989 313.655 223.027 313.277 223.169 312.935C223.311 312.592 223.552 312.299 223.862 312.093C224.171 311.887 224.534 311.777 224.906 311.778C225.404 311.778 225.881 311.976 226.233 312.327C226.585 312.679 226.783 313.155 226.784 313.652Z" fill="#A5C5E8"/>
<path d="M173.334 325.323C173.334 325.694 173.224 326.057 173.017 326.365C172.811 326.673 172.517 326.914 172.174 327.055C171.83 327.197 171.453 327.234 171.088 327.162C170.724 327.089 170.389 326.911 170.126 326.648C169.864 326.386 169.685 326.052 169.612 325.688C169.54 325.324 169.577 324.947 169.719 324.605C169.862 324.262 170.102 323.969 170.411 323.763C170.72 323.557 171.084 323.447 171.455 323.447C171.702 323.447 171.947 323.496 172.175 323.59C172.403 323.684 172.61 323.822 172.784 323.997C172.959 324.171 173.097 324.378 173.191 324.605C173.286 324.833 173.334 325.077 173.334 325.323Z" fill="#A5C5E8"/>
<path d="M184.024 325.323C184.023 325.694 183.913 326.057 183.707 326.365C183.5 326.673 183.207 326.914 182.863 327.055C182.52 327.197 182.142 327.234 181.778 327.162C181.413 327.089 181.078 326.911 180.816 326.648C180.553 326.386 180.374 326.052 180.302 325.688C180.229 325.324 180.266 324.947 180.409 324.605C180.551 324.262 180.792 323.969 181.101 323.763C181.41 323.557 181.773 323.447 182.145 323.447C182.392 323.447 182.636 323.496 182.864 323.59C183.092 323.684 183.299 323.822 183.474 323.997C183.648 324.171 183.787 324.378 183.881 324.605C183.975 324.833 184.024 325.077 184.024 325.323Z" fill="#A5C5E8"/>
<path d="M194.714 325.323C194.713 325.694 194.603 326.057 194.397 326.365C194.19 326.673 193.896 326.914 193.553 327.055C193.21 327.197 192.832 327.234 192.467 327.162C192.103 327.089 191.768 326.91 191.505 326.648C191.243 326.386 191.064 326.051 190.991 325.687C190.919 325.324 190.957 324.947 191.099 324.604C191.241 324.261 191.482 323.968 191.792 323.763C192.101 323.557 192.464 323.447 192.836 323.447C193.082 323.447 193.327 323.496 193.555 323.59C193.783 323.684 193.99 323.822 194.164 323.997C194.339 324.171 194.477 324.378 194.571 324.605C194.665 324.833 194.714 325.077 194.714 325.323Z" fill="#A5C5E8"/>
<path d="M205.404 325.323C205.404 325.694 205.293 326.057 205.087 326.365C204.88 326.673 204.587 326.913 204.243 327.055C203.9 327.197 203.522 327.234 203.158 327.162C202.793 327.089 202.459 326.911 202.196 326.648C201.933 326.386 201.754 326.052 201.682 325.688C201.61 325.324 201.647 324.947 201.789 324.605C201.931 324.262 202.172 323.969 202.481 323.763C202.79 323.557 203.153 323.447 203.525 323.447C203.772 323.447 204.016 323.495 204.244 323.59C204.472 323.684 204.68 323.822 204.854 323.996C205.029 324.171 205.167 324.377 205.261 324.605C205.356 324.833 205.404 325.077 205.404 325.323Z" fill="#A5C5E8"/>
<path d="M216.095 325.323C216.095 325.694 215.984 326.057 215.778 326.365C215.571 326.673 215.278 326.913 214.934 327.055C214.591 327.197 214.213 327.234 213.849 327.162C213.484 327.089 213.15 326.911 212.887 326.648C212.624 326.386 212.445 326.052 212.373 325.688C212.301 325.324 212.338 324.947 212.48 324.604C212.622 324.262 212.863 323.969 213.172 323.763C213.481 323.557 213.844 323.447 214.216 323.447C214.463 323.447 214.707 323.496 214.935 323.59C215.163 323.684 215.37 323.822 215.545 323.997C215.719 324.171 215.858 324.378 215.952 324.605C216.046 324.833 216.095 325.077 216.095 325.323Z" fill="#A5C5E8"/>
<path d="M226.784 325.323C226.784 325.694 226.674 326.057 226.467 326.365C226.261 326.673 225.967 326.914 225.624 327.055C225.28 327.197 224.902 327.234 224.538 327.162C224.173 327.089 223.839 326.91 223.576 326.648C223.313 326.386 223.135 326.051 223.062 325.687C222.99 325.324 223.027 324.947 223.17 324.604C223.312 324.261 223.553 323.968 223.862 323.763C224.171 323.557 224.535 323.447 224.906 323.447C225.153 323.447 225.397 323.496 225.625 323.59C225.853 323.684 226.06 323.823 226.235 323.997C226.409 324.171 226.547 324.378 226.642 324.605C226.736 324.833 226.784 325.077 226.784 325.323Z" fill="#A5C5E8"/>
<path d="M173.334 336.993C173.334 337.364 173.224 337.727 173.018 338.035C172.811 338.344 172.518 338.584 172.174 338.726C171.831 338.868 171.453 338.905 171.089 338.833C170.724 338.761 170.389 338.582 170.127 338.32C169.864 338.058 169.685 337.723 169.612 337.36C169.54 336.996 169.577 336.619 169.719 336.276C169.861 335.933 170.102 335.64 170.411 335.434C170.72 335.228 171.084 335.118 171.455 335.118C171.702 335.118 171.946 335.167 172.174 335.261C172.402 335.355 172.609 335.493 172.784 335.667C172.958 335.841 173.097 336.048 173.191 336.276C173.286 336.503 173.334 336.747 173.334 336.993Z" fill="#A5C5E8"/>
<path d="M184.024 336.993C184.024 337.364 183.914 337.727 183.707 338.035C183.501 338.344 183.207 338.584 182.864 338.726C182.521 338.868 182.143 338.905 181.778 338.833C181.414 338.761 181.079 338.582 180.816 338.32C180.553 338.058 180.374 337.723 180.302 337.36C180.229 336.996 180.266 336.619 180.409 336.276C180.551 335.933 180.792 335.64 181.101 335.434C181.41 335.228 181.773 335.118 182.145 335.118C182.391 335.118 182.636 335.167 182.864 335.261C183.092 335.355 183.299 335.493 183.473 335.667C183.648 335.841 183.786 336.048 183.881 336.276C183.975 336.503 184.024 336.747 184.024 336.993Z" fill="#A5C5E8"/>
<path d="M194.714 336.993C194.714 337.364 194.603 337.727 194.397 338.035C194.191 338.344 193.897 338.584 193.554 338.726C193.21 338.868 192.832 338.905 192.468 338.833C192.103 338.761 191.768 338.582 191.506 338.32C191.243 338.057 191.064 337.723 190.992 337.359C190.919 336.995 190.956 336.618 191.099 336.275C191.241 335.933 191.482 335.64 191.791 335.434C192.101 335.228 192.464 335.118 192.836 335.118C193.082 335.118 193.327 335.167 193.554 335.261C193.782 335.355 193.989 335.493 194.164 335.667C194.338 335.842 194.477 336.048 194.571 336.276C194.665 336.503 194.714 336.747 194.714 336.993Z" fill="#A5C5E8"/>
<path d="M205.404 336.993C205.404 337.364 205.294 337.727 205.087 338.035C204.881 338.344 204.588 338.584 204.244 338.726C203.901 338.868 203.523 338.905 203.159 338.833C202.794 338.761 202.459 338.582 202.196 338.32C201.934 338.058 201.755 337.723 201.682 337.36C201.61 336.996 201.647 336.619 201.789 336.276C201.931 335.933 202.172 335.64 202.481 335.434C202.79 335.228 203.153 335.118 203.525 335.118C203.772 335.118 204.016 335.167 204.244 335.261C204.472 335.355 204.679 335.493 204.854 335.667C205.028 335.841 205.167 336.048 205.261 336.276C205.355 336.503 205.404 336.747 205.404 336.993Z" fill="#A5C5E8"/>
<path d="M216.095 336.993C216.095 337.364 215.985 337.727 215.778 338.035C215.572 338.344 215.278 338.584 214.935 338.726C214.592 338.868 214.214 338.905 213.849 338.833C213.485 338.761 213.15 338.582 212.887 338.32C212.624 338.057 212.446 337.723 212.373 337.36C212.301 336.996 212.338 336.619 212.48 336.276C212.622 335.933 212.863 335.64 213.172 335.434C213.481 335.228 213.844 335.118 214.216 335.118C214.463 335.118 214.707 335.167 214.935 335.261C215.163 335.355 215.37 335.493 215.545 335.667C215.719 335.841 215.857 336.048 215.952 336.276C216.046 336.503 216.095 336.747 216.095 336.993Z" fill="#A5C5E8"/>
<path d="M226.784 336.993C226.784 337.364 226.674 337.727 226.468 338.035C226.261 338.344 225.968 338.584 225.624 338.726C225.281 338.868 224.903 338.905 224.539 338.833C224.174 338.761 223.839 338.582 223.576 338.32C223.314 338.057 223.135 337.723 223.062 337.359C222.99 336.995 223.027 336.618 223.17 336.275C223.312 335.933 223.553 335.64 223.862 335.434C224.171 335.228 224.535 335.118 224.906 335.118C225.405 335.118 225.882 335.316 226.234 335.668C226.587 336.019 226.784 336.496 226.784 336.993Z" fill="#A5C5E8"/>
<path d="M450.201 202.453C450.201 202.726 450.12 202.992 449.968 203.22C449.816 203.447 449.6 203.624 449.348 203.728C449.095 203.833 448.817 203.86 448.549 203.807C448.28 203.753 448.034 203.622 447.841 203.429C447.647 203.236 447.515 202.99 447.462 202.722C447.409 202.454 447.436 202.177 447.541 201.925C447.646 201.672 447.823 201.457 448.05 201.305C448.278 201.153 448.545 201.073 448.819 201.073C449.185 201.073 449.537 201.218 449.796 201.477C450.056 201.736 450.201 202.087 450.201 202.453Z" fill="#1C49B0"/>
<path d="M458.068 202.453C458.068 202.726 457.987 202.992 457.835 203.219C457.683 203.446 457.467 203.623 457.215 203.728C456.962 203.832 456.684 203.86 456.416 203.806C456.148 203.753 455.901 203.622 455.708 203.429C455.514 203.236 455.383 202.99 455.329 202.722C455.276 202.454 455.303 202.177 455.408 201.925C455.513 201.672 455.69 201.457 455.917 201.305C456.145 201.153 456.412 201.073 456.686 201.073C457.052 201.073 457.404 201.218 457.663 201.477C457.922 201.736 458.068 202.087 458.068 202.453Z" fill="#1C49B0"/>
<path d="M465.936 202.453C465.936 202.726 465.855 202.993 465.703 203.22C465.551 203.447 465.335 203.624 465.082 203.728C464.829 203.833 464.551 203.86 464.283 203.807C464.014 203.754 463.768 203.622 463.574 203.429C463.381 203.236 463.249 202.99 463.196 202.722C463.143 202.454 463.17 202.176 463.275 201.924C463.38 201.672 463.557 201.456 463.785 201.305C464.012 201.153 464.28 201.072 464.553 201.073C464.92 201.073 465.272 201.218 465.531 201.477C465.79 201.736 465.936 202.087 465.936 202.453Z" fill="#1C49B0"/>
<path d="M473.803 202.453C473.803 202.726 473.722 202.993 473.57 203.22C473.418 203.447 473.202 203.624 472.949 203.728C472.697 203.833 472.418 203.86 472.15 203.807C471.882 203.753 471.635 203.622 471.442 203.429C471.249 203.236 471.117 202.99 471.064 202.722C471.01 202.454 471.038 202.177 471.142 201.924C471.247 201.672 471.425 201.457 471.652 201.305C471.88 201.153 472.147 201.072 472.421 201.073C472.602 201.073 472.782 201.108 472.95 201.178C473.117 201.247 473.27 201.349 473.398 201.477C473.526 201.605 473.628 201.757 473.698 201.924C473.767 202.092 473.803 202.271 473.803 202.453Z" fill="#1C49B0"/>
<path d="M481.671 202.453C481.671 202.726 481.59 202.992 481.438 203.219C481.286 203.446 481.07 203.623 480.818 203.728C480.565 203.832 480.287 203.86 480.019 203.807C479.75 203.753 479.504 203.622 479.311 203.429C479.117 203.236 478.985 202.99 478.932 202.722C478.878 202.455 478.906 202.177 479.01 201.925C479.115 201.673 479.292 201.457 479.52 201.305C479.747 201.154 480.014 201.073 480.288 201.073C480.655 201.073 481.006 201.218 481.266 201.477C481.525 201.736 481.671 202.087 481.671 202.453Z" fill="#1C49B0"/>
<path d="M489.538 202.453C489.538 202.726 489.457 202.993 489.305 203.22C489.153 203.447 488.937 203.624 488.684 203.728C488.431 203.833 488.153 203.86 487.885 203.807C487.616 203.754 487.37 203.622 487.176 203.429C486.983 203.236 486.851 202.99 486.798 202.722C486.745 202.454 486.772 202.177 486.877 201.924C486.982 201.672 487.159 201.456 487.387 201.305C487.614 201.153 487.882 201.072 488.155 201.073C488.522 201.073 488.874 201.218 489.133 201.477C489.392 201.736 489.538 202.087 489.538 202.453Z" fill="#1C49B0"/>
<path d="M450.201 211.041C450.201 211.314 450.121 211.581 449.969 211.808C449.817 212.035 449.601 212.212 449.348 212.317C449.095 212.421 448.817 212.449 448.549 212.396C448.281 212.342 448.034 212.211 447.841 212.018C447.647 211.825 447.516 211.579 447.462 211.311C447.409 211.043 447.436 210.766 447.541 210.514C447.646 210.261 447.823 210.046 448.05 209.894C448.278 209.742 448.545 209.661 448.819 209.661C449.185 209.662 449.537 209.807 449.796 210.066C450.055 210.324 450.201 210.675 450.201 211.041Z" fill="#1C49B0"/>
<path d="M458.068 211.041C458.068 211.314 457.987 211.581 457.836 211.808C457.684 212.035 457.468 212.212 457.215 212.317C456.962 212.421 456.684 212.449 456.416 212.395C456.148 212.342 455.901 212.211 455.708 212.018C455.514 211.825 455.383 211.579 455.329 211.311C455.276 211.043 455.303 210.766 455.408 210.514C455.513 210.261 455.69 210.046 455.917 209.894C456.145 209.742 456.412 209.661 456.686 209.661C457.052 209.662 457.404 209.807 457.663 210.066C457.922 210.324 458.068 210.675 458.068 211.041Z" fill="#1C49B0"/>
<path d="M465.936 211.041C465.936 211.314 465.855 211.581 465.703 211.808C465.551 212.035 465.335 212.212 465.082 212.317C464.829 212.422 464.551 212.449 464.283 212.396C464.015 212.343 463.768 212.211 463.575 212.018C463.381 211.825 463.249 211.579 463.196 211.311C463.143 211.043 463.17 210.766 463.275 210.513C463.38 210.261 463.557 210.045 463.785 209.894C464.012 209.742 464.28 209.661 464.553 209.661C464.92 209.662 465.271 209.807 465.531 210.066C465.79 210.324 465.935 210.675 465.936 211.041Z" fill="#1C49B0"/>
<path d="M473.803 211.041C473.803 211.314 473.722 211.581 473.57 211.808C473.418 212.035 473.202 212.212 472.95 212.317C472.697 212.421 472.419 212.449 472.151 212.396C471.882 212.342 471.636 212.211 471.442 212.018C471.249 211.825 471.117 211.579 471.064 211.311C471.01 211.043 471.038 210.766 471.142 210.513C471.247 210.261 471.425 210.046 471.652 209.894C471.88 209.742 472.147 209.661 472.421 209.661C472.787 209.662 473.139 209.807 473.398 210.066C473.657 210.324 473.803 210.675 473.803 211.041Z" fill="#1C49B0"/>
<path d="M481.671 211.041C481.671 211.314 481.59 211.581 481.438 211.808C481.287 212.035 481.071 212.212 480.818 212.317C480.565 212.421 480.287 212.449 480.019 212.396C479.751 212.343 479.504 212.211 479.311 212.018C479.117 211.825 478.985 211.579 478.932 211.312C478.878 211.044 478.906 210.766 479.01 210.514C479.115 210.262 479.292 210.046 479.52 209.894C479.747 209.743 480.014 209.662 480.288 209.661C480.655 209.662 481.006 209.807 481.265 210.066C481.525 210.324 481.671 210.675 481.671 211.041Z" fill="#1C49B0"/>
<path d="M489.538 211.041C489.538 211.314 489.457 211.581 489.305 211.808C489.153 212.036 488.937 212.213 488.685 212.317C488.432 212.422 488.154 212.449 487.885 212.396C487.617 212.343 487.37 212.211 487.177 212.018C486.983 211.825 486.851 211.579 486.798 211.311C486.745 211.043 486.772 210.766 486.877 210.513C486.982 210.261 487.159 210.045 487.387 209.894C487.614 209.742 487.882 209.661 488.155 209.661C488.522 209.662 488.873 209.807 489.132 210.066C489.392 210.325 489.537 210.675 489.538 211.041Z" fill="#1C49B0"/>
<path d="M450.201 219.63C450.201 219.903 450.12 220.17 449.968 220.397C449.816 220.624 449.6 220.801 449.348 220.905C449.095 221.01 448.817 221.037 448.549 220.984C448.28 220.93 448.034 220.799 447.84 220.606C447.647 220.413 447.515 220.167 447.462 219.899C447.409 219.631 447.436 219.354 447.541 219.102C447.646 218.849 447.823 218.634 448.05 218.482C448.278 218.331 448.545 218.25 448.819 218.25C449.185 218.25 449.537 218.395 449.796 218.654C450.056 218.913 450.201 219.264 450.201 219.63Z" fill="#1C49B0"/>
<path d="M458.068 219.63C458.068 219.903 457.987 220.17 457.835 220.397C457.683 220.624 457.467 220.801 457.214 220.905C456.962 221.009 456.684 221.037 456.416 220.983C456.147 220.93 455.901 220.799 455.708 220.606C455.514 220.413 455.383 220.167 455.329 219.899C455.276 219.631 455.303 219.354 455.408 219.102C455.513 218.849 455.69 218.634 455.917 218.482C456.145 218.331 456.412 218.25 456.686 218.25C457.052 218.25 457.404 218.395 457.663 218.654C457.923 218.913 458.068 219.264 458.068 219.63Z" fill="#1C49B0"/>
<path d="M465.936 219.63C465.936 219.903 465.854 220.17 465.702 220.397C465.55 220.624 465.334 220.801 465.082 220.906C464.829 221.01 464.551 221.037 464.282 220.984C464.014 220.931 463.768 220.799 463.574 220.606C463.381 220.413 463.249 220.167 463.196 219.899C463.143 219.631 463.17 219.353 463.275 219.101C463.38 218.849 463.557 218.633 463.785 218.482C464.012 218.33 464.28 218.25 464.553 218.25C464.735 218.25 464.915 218.286 465.082 218.355C465.25 218.424 465.403 218.526 465.531 218.654C465.659 218.782 465.761 218.935 465.83 219.102C465.9 219.269 465.936 219.449 465.936 219.63Z" fill="#1C49B0"/>
<path d="M473.803 219.63C473.803 219.903 473.722 220.17 473.57 220.397C473.418 220.624 473.202 220.801 472.949 220.905C472.696 221.01 472.418 221.037 472.15 220.984C471.882 220.93 471.635 220.799 471.442 220.606C471.249 220.413 471.117 220.167 471.064 219.899C471.01 219.631 471.038 219.354 471.143 219.101C471.247 218.849 471.425 218.634 471.652 218.482C471.88 218.33 472.147 218.25 472.421 218.25C472.602 218.25 472.782 218.285 472.95 218.355C473.117 218.424 473.27 218.526 473.398 218.654C473.527 218.782 473.628 218.934 473.698 219.102C473.767 219.269 473.803 219.449 473.803 219.63Z" fill="#1C49B0"/>
<path d="M481.671 219.63C481.671 219.903 481.59 220.17 481.438 220.397C481.286 220.624 481.07 220.801 480.817 220.905C480.565 221.01 480.287 221.037 480.018 220.984C479.75 220.931 479.504 220.799 479.31 220.606C479.117 220.413 478.985 220.167 478.932 219.899C478.878 219.632 478.906 219.354 479.01 219.102C479.115 218.85 479.292 218.634 479.52 218.482C479.747 218.331 480.014 218.25 480.288 218.25C480.655 218.25 481.007 218.395 481.266 218.654C481.525 218.913 481.671 219.264 481.671 219.63Z" fill="#1C49B0"/>
<path d="M489.538 219.63C489.538 219.903 489.457 220.17 489.305 220.397C489.153 220.624 488.937 220.801 488.684 220.906C488.431 221.01 488.153 221.038 487.885 220.984C487.616 220.931 487.37 220.799 487.176 220.606C486.983 220.413 486.851 220.167 486.798 219.899C486.745 219.631 486.772 219.354 486.877 219.101C486.982 218.849 487.159 218.634 487.387 218.482C487.614 218.33 487.882 218.25 488.155 218.25C488.522 218.25 488.874 218.396 489.133 218.654C489.392 218.913 489.538 219.264 489.538 219.63Z" fill="#1C49B0"/>
<path d="M450.201 228.219C450.201 228.492 450.12 228.759 449.968 228.986C449.816 229.213 449.6 229.39 449.348 229.494C449.095 229.599 448.817 229.626 448.549 229.573C448.28 229.519 448.034 229.388 447.841 229.195C447.647 229.002 447.515 228.756 447.462 228.488C447.409 228.22 447.436 227.943 447.541 227.691C447.646 227.438 447.823 227.223 448.05 227.071C448.278 226.92 448.545 226.839 448.819 226.839C449 226.839 449.18 226.874 449.348 226.944C449.516 227.013 449.668 227.115 449.797 227.243C449.925 227.371 450.027 227.523 450.096 227.691C450.166 227.858 450.201 228.038 450.201 228.219Z" fill="#1C49B0"/>
<path d="M458.068 228.219C458.068 228.492 457.987 228.759 457.835 228.986C457.683 229.213 457.467 229.39 457.215 229.494C456.962 229.598 456.684 229.626 456.416 229.572C456.147 229.519 455.901 229.388 455.708 229.195C455.514 229.002 455.383 228.756 455.329 228.488C455.276 228.22 455.303 227.943 455.408 227.691C455.513 227.438 455.69 227.223 455.917 227.071C456.145 226.92 456.412 226.839 456.686 226.839C456.867 226.839 457.047 226.874 457.215 226.944C457.383 227.013 457.535 227.115 457.664 227.243C457.792 227.371 457.894 227.523 457.963 227.691C458.033 227.858 458.068 228.038 458.068 228.219Z" fill="#1C49B0"/>
<path d="M465.936 228.219C465.936 228.492 465.855 228.759 465.703 228.986C465.551 229.213 465.335 229.39 465.082 229.494C464.829 229.599 464.551 229.626 464.283 229.573C464.014 229.52 463.768 229.388 463.574 229.195C463.381 229.002 463.249 228.756 463.196 228.488C463.143 228.22 463.17 227.943 463.275 227.69C463.38 227.438 463.557 227.222 463.785 227.071C464.012 226.919 464.28 226.839 464.553 226.839C464.735 226.839 464.915 226.874 465.083 226.944C465.25 227.013 465.403 227.115 465.531 227.243C465.659 227.371 465.761 227.523 465.831 227.691C465.9 227.858 465.936 228.038 465.936 228.219Z" fill="#1C49B0"/>
<path d="M473.803 228.219C473.803 228.492 473.722 228.759 473.57 228.986C473.418 229.213 473.202 229.39 472.949 229.494C472.696 229.599 472.418 229.626 472.15 229.573C471.882 229.519 471.635 229.388 471.442 229.195C471.249 229.002 471.117 228.756 471.064 228.488C471.01 228.22 471.038 227.943 471.143 227.69C471.247 227.438 471.425 227.223 471.652 227.071C471.88 226.919 472.147 226.839 472.421 226.839C472.602 226.839 472.782 226.874 472.95 226.944C473.118 227.013 473.27 227.115 473.398 227.243C473.527 227.371 473.629 227.523 473.698 227.691C473.767 227.858 473.803 228.038 473.803 228.219Z" fill="#1C49B0"/>
<path d="M481.671 228.219C481.671 228.492 481.59 228.759 481.438 228.986C481.286 229.213 481.07 229.39 480.818 229.494C480.565 229.599 480.287 229.626 480.019 229.573C479.75 229.52 479.504 229.388 479.31 229.195C479.117 229.002 478.985 228.756 478.932 228.488C478.878 228.221 478.906 227.943 479.01 227.691C479.115 227.439 479.292 227.223 479.52 227.071C479.747 226.92 480.014 226.839 480.288 226.839C480.47 226.839 480.649 226.874 480.817 226.944C480.985 227.013 481.138 227.115 481.266 227.243C481.394 227.371 481.496 227.523 481.566 227.691C481.635 227.858 481.671 228.038 481.671 228.219Z" fill="#1C49B0"/>
<path d="M489.538 228.219C489.538 228.492 489.457 228.759 489.305 228.986C489.153 229.213 488.937 229.39 488.684 229.495C488.431 229.599 488.153 229.627 487.885 229.573C487.616 229.52 487.37 229.388 487.176 229.195C486.983 229.002 486.851 228.756 486.798 228.488C486.745 228.22 486.772 227.943 486.877 227.69C486.982 227.438 487.159 227.223 487.387 227.071C487.614 226.919 487.882 226.839 488.155 226.839C488.522 226.839 488.874 226.984 489.133 227.243C489.392 227.502 489.538 227.853 489.538 228.219Z" fill="#1C49B0"/>
<path d="M331.822 413.591C331.822 413.591 321.302 360.903 330.882 364.465C340.464 368.028 341.778 408.717 337.457 414.529" fill="#1C49B0"/>
<path d="M331.822 413.591C331.822 413.591 321.302 360.903 330.882 364.465C340.464 368.028 341.778 408.717 337.457 414.529" stroke="#1C49B0" stroke-width="1.19242" stroke-miterlimit="10"/>
<path d="M330.801 415.531C330.801 415.531 328.928 394.017 318.619 395.138C308.31 396.262 323.305 413.847 325.929 415.531" fill="#A5C5E8"/>
<path d="M330.801 415.531C330.801 415.531 328.928 394.017 318.619 395.138C308.31 396.262 323.305 413.847 325.929 415.531" stroke="#1C49B0" stroke-width="1.19242" stroke-linecap="round" stroke-linejoin="round"/>
<path d="M318.806 386.346C318.806 386.346 315.995 394.765 323.492 393.269C330.99 391.771 328.811 391.49 328.811 391.49" fill="#A5C5E8"/>
<path d="M318.806 386.346C318.806 386.346 315.995 394.765 323.492 393.269C330.99 391.771 328.811 391.49 328.811 391.49" stroke="#1C49B0" stroke-width="1.19242" stroke-miterlimit="10"/>
<path d="M333.052 415.343C333.052 415.343 330.614 383.166 327.053 381.856C323.492 380.547 317.495 383.353 318.806 386.346C320.119 389.339 328.928 415.531 328.928 415.531" fill="#DCE8F6"/>
<path d="M333.052 415.343C333.052 415.343 330.614 383.166 327.053 381.856C323.492 380.547 317.495 383.353 318.806 386.346C320.119 389.339 328.928 415.531 328.928 415.531" stroke="#1C49B0" stroke-width="1.19242" stroke-linecap="round" stroke-linejoin="round"/>
<path d="M354.365 380.029C354.365 380.029 356.807 390.154 352.111 393.529C347.414 396.903 343.845 390.717 343.845 390.717L343.094 379.654" fill="#A5C5E8"/>
<path d="M354.365 380.029C354.365 380.029 356.807 390.154 352.111 393.529C347.414 396.903 343.845 390.717 343.845 390.717L343.094 379.654" stroke="#1C49B0" stroke-width="1.19242" stroke-miterlimit="10"/>
<path d="M335.015 414.716C335.015 414.716 337.645 371.966 346.85 374.59C356.055 377.216 354.364 382.278 354.364 382.278C354.364 382.278 352.11 380.217 350.795 382.841C349.48 385.467 342.717 415.467 342.717 415.467" fill="#DCE8F6"/>
<path d="M335.015 414.716C335.015 414.716 337.645 371.966 346.85 374.59C356.055 377.216 354.364 382.278 354.364 382.278C354.364 382.278 352.11 380.217 350.795 382.841C349.48 385.467 342.717 415.467 342.717 415.467" stroke="#1C49B0" stroke-width="1.19242" stroke-linecap="round" stroke-linejoin="round"/>
<path d="M339.16 414.8C339.16 414.8 342.92 393.533 353.091 395.556C363.261 397.578 346.776 413.78 344.014 415.227" fill="#A5C5E8"/>
<path d="M339.16 414.8C339.16 414.8 342.92 393.533 353.091 395.556C363.261 397.578 346.776 413.78 344.014 415.227" stroke="#1C49B0" stroke-width="1.19242" stroke-miterlimit="10"/>
<path d="M330.694 367.09C330.694 367.09 335.631 397.831 333.939 414.706" stroke="#1C49B0" stroke-width="0.794946" stroke-linecap="round" stroke-linejoin="round"/>
<path d="M323.556 383.592C323.556 383.592 329.942 405.904 330.506 413.592" stroke="#1C49B0" stroke-width="0.794946" stroke-linecap="round" stroke-linejoin="round"/>
<path d="M318.483 398.029C318.483 398.029 325.997 409.28 327.125 414.154" stroke="#1C49B0" stroke-width="0.794946" stroke-linecap="round" stroke-linejoin="round"/>
<path d="M347.226 377.591C347.226 377.591 339.524 400.653 337.458 413.217" stroke="#1C49B0" stroke-width="0.794946" stroke-linecap="round" stroke-linejoin="round"/>
<path d="M341.117 414.581L340.936 414.479C345.21 406.872 351.217 398.983 351.276 398.904L351.441 399.029C351.381 399.108 345.384 406.988 341.117 414.581Z" stroke="#1C49B0" stroke-width="0.794946" stroke-linecap="round" stroke-linejoin="round"/>
<path d="M351.36 413.781H320.3V420.717H351.36V413.781Z" fill="#1C49B0" stroke="#1C49B0" stroke-width="1.19242" stroke-miterlimit="10"/>
<path d="M597.003 312.973V308.872H593.714C593.446 307.525 592.914 306.245 592.149 305.104L594.475 302.782L591.569 299.881L589.243 302.203C588.101 301.439 586.818 300.909 585.469 300.642V297.36H581.359V300.642C580.01 300.909 578.727 301.439 577.584 302.203L575.258 299.881L572.352 302.782L574.678 305.104C573.913 306.245 573.381 307.525 573.113 308.872H569.824V312.973H573.113C573.381 314.32 573.913 315.6 574.678 316.741L572.352 319.063L575.258 321.964L577.584 319.642C578.726 320.406 580.01 320.937 581.359 321.204V324.486H585.469V321.204C586.818 320.937 588.1 320.406 589.243 319.642L591.569 321.964L594.475 319.063L592.149 316.741C592.914 315.6 593.446 314.32 593.714 312.973H597.003ZM583.414 316.736C582.262 316.736 581.136 316.395 580.178 315.756C579.22 315.118 578.473 314.21 578.032 313.148C577.591 312.086 577.476 310.917 577.701 309.789C577.925 308.661 578.48 307.626 579.294 306.813C580.109 305.999 581.147 305.446 582.276 305.221C583.406 304.997 584.577 305.112 585.641 305.552C586.706 305.992 587.615 306.737 588.255 307.693C588.895 308.649 589.237 309.773 589.237 310.923C589.237 312.464 588.623 313.943 587.531 315.033C586.439 316.123 584.958 316.735 583.414 316.736Z" fill="#A5C5E8"/>
<path d="M464.876 205.107V202.231H462.57C462.382 201.286 462.009 200.389 461.473 199.589L463.104 197.961L461.066 195.927L459.435 197.555C458.634 197.019 457.734 196.647 456.788 196.459V194.158H453.907V196.459C452.961 196.647 452.061 197.019 451.259 197.555L449.628 195.927L447.591 197.961L449.222 199.589C448.685 200.388 448.312 201.286 448.125 202.231H445.819V205.107H448.125C448.312 206.051 448.685 206.949 449.222 207.749L447.591 209.376L449.628 211.411L451.259 209.783C452.061 210.318 452.961 210.691 453.907 210.878V213.179H456.788V210.878C457.734 210.69 458.634 210.318 459.435 209.783L461.066 211.411L463.104 209.376L461.473 207.749C462.009 206.949 462.382 206.051 462.57 205.107H464.876ZM455.348 207.745C454.54 207.745 453.75 207.506 453.079 207.058C452.407 206.61 451.884 205.974 451.574 205.229C451.265 204.484 451.184 203.664 451.342 202.874C451.499 202.083 451.888 201.357 452.459 200.787C453.031 200.217 453.758 199.828 454.55 199.671C455.343 199.514 456.164 199.594 456.91 199.903C457.656 200.211 458.294 200.734 458.743 201.404C459.192 202.074 459.431 202.862 459.431 203.669C459.431 204.75 459.001 205.786 458.235 206.551C457.469 207.315 456.431 207.745 455.348 207.745Z" fill="#1C49B0"/>
<path d="M465.762 392.431C465.762 393.393 465.573 394.344 465.204 395.233C464.836 396.121 464.296 396.928 463.615 397.607C462.934 398.287 462.125 398.826 461.235 399.194C460.345 399.562 459.392 399.751 458.428 399.75H405.627C404.664 399.751 403.71 399.561 402.821 399.194C401.931 398.826 401.122 398.287 400.441 397.607C399.761 396.928 399.221 396.121 398.852 395.232C398.484 394.344 398.295 393.393 398.295 392.431C398.294 391.47 398.484 390.518 398.852 389.63C399.22 388.742 399.76 387.935 400.441 387.255C401.122 386.575 401.931 386.036 402.82 385.668C403.71 385.3 404.664 385.111 405.627 385.111H458.428C459.392 385.111 460.345 385.3 461.235 385.668C462.125 386.036 462.934 386.575 463.615 387.255C464.296 387.934 464.836 388.742 465.205 389.63C465.573 390.518 465.762 391.47 465.762 392.431Z" fill="white" stroke="#1C49B0" stroke-width="1.19242" stroke-linecap="round" stroke-linejoin="round"/>
<path d="M465.762 350.27C465.762 351.231 465.573 352.183 465.204 353.071C464.836 353.96 464.296 354.767 463.615 355.446C462.934 356.126 462.125 356.665 461.235 357.033C460.345 357.401 459.392 357.59 458.428 357.59H405.627C404.664 357.59 403.71 357.401 402.821 357.033C401.931 356.665 401.122 356.126 400.441 355.446C399.76 354.766 399.22 353.959 398.852 353.071C398.484 352.183 398.294 351.231 398.295 350.27C398.294 349.309 398.484 348.357 398.852 347.469C399.22 346.581 399.76 345.774 400.441 345.094C401.122 344.414 401.931 343.875 402.821 343.508C403.71 343.14 404.664 342.951 405.627 342.951H458.428C459.392 342.951 460.345 343.14 461.235 343.508C462.125 343.875 462.934 344.414 463.615 345.094C464.296 345.774 464.836 346.581 465.204 347.469C465.573 348.357 465.762 349.309 465.762 350.27Z" fill="white" stroke="#1C49B0" stroke-width="1.19242" stroke-linecap="round" stroke-linejoin="round"/>
<path d="M433.84 352.518C433.84 352.98 433.749 353.437 433.572 353.863C433.395 354.29 433.136 354.677 432.809 355.004C432.482 355.33 432.094 355.589 431.667 355.766C431.24 355.942 430.782 356.033 430.319 356.033H404.97C404.507 356.033 404.049 355.942 403.622 355.766C403.195 355.589 402.807 355.33 402.48 355.004C402.153 354.678 401.893 354.29 401.717 353.864C401.54 353.437 401.449 352.98 401.449 352.518C401.449 352.057 401.54 351.6 401.717 351.174C401.894 350.747 402.153 350.36 402.48 350.033C402.807 349.707 403.195 349.448 403.622 349.272C404.049 349.095 404.507 349.004 404.97 349.005H430.319C430.782 349.005 431.239 349.095 431.667 349.272C432.094 349.448 432.482 349.707 432.809 350.033C433.136 350.36 433.395 350.747 433.572 351.174C433.749 351.6 433.84 352.057 433.84 352.518Z" fill="#A5C5E8"/>
<path d="M435.053 394.208C435.053 394.669 434.962 395.126 434.785 395.553C434.608 395.979 434.349 396.366 434.022 396.693C433.695 397.019 433.307 397.278 432.879 397.455C432.452 397.631 431.994 397.722 431.532 397.722H406.182C405.72 397.722 405.262 397.631 404.834 397.455C404.407 397.278 404.019 397.019 403.692 396.693C403.365 396.367 403.106 395.979 402.929 395.553C402.752 395.126 402.661 394.669 402.662 394.208C402.661 393.746 402.752 393.289 402.929 392.863C403.106 392.436 403.365 392.049 403.692 391.722C404.019 391.396 404.407 391.137 404.835 390.961C405.262 390.784 405.72 390.694 406.182 390.694H431.532C431.994 390.694 432.452 390.784 432.879 390.961C433.307 391.137 433.695 391.396 434.022 391.722C434.349 392.049 434.608 392.436 434.785 392.863C434.962 393.289 435.053 393.746 435.053 394.208Z" fill="#A5C5E8"/>
<path d="M616.644 367.069C616.644 367.069 689.475 372.413 727.863 349.069" stroke="#1C49B0" stroke-width="1.98736" stroke-linecap="round" stroke-linejoin="round"/>
<path d="M577.166 398.32L581.326 407.142L572.963 409.52L569.107 400.569" fill="white"/>
<path d="M577.166 398.32L581.326 407.142L572.963 409.52L569.107 400.569" stroke="#1C49B0" stroke-width="1.19242" stroke-linecap="round" stroke-linejoin="round"/>
<path d="M524.913 403.899L527.252 413.196L519.02 415.315L518.673 404.634" fill="white"/>
<path d="M524.913 403.899L527.252 413.196L519.02 415.315L518.673 404.634" stroke="#1C49B0" stroke-width="1.19242" stroke-linecap="round" stroke-linejoin="round"/>
<path d="M533.524 293.382C533.524 293.382 544.76 300.135 547.926 309.612C551.091 319.09 554.415 360.633 559.637 367.563C564.859 374.494 581.889 397.152 581.889 397.152L568.847 404.634C568.847 404.634 549.35 378.047 544.76 370.347C540.171 362.647 532.575 327.896 532.575 327.896C532.575 327.896 522.763 354.784 522.288 365.841C521.813 376.898 529.722 406.709 529.722 406.709L516.594 407.098C516.594 407.098 508.362 379.07 507.569 364.577C506.779 350.086 516.907 307.439 516.907 307.439" fill="#1C49B0"/>
<path d="M491.088 317.66C493.422 310.327 494.549 301.771 492.456 292.83C486.522 267.477 479.163 279.561 479.163 286.432C479.163 286.432 481.602 300.782 480.291 315.222C482.244 316.616 485.609 318.021 491.088 317.66Z" fill="#A5C5E8" stroke="#1C49B0" stroke-width="1.19242" stroke-linecap="round" stroke-linejoin="round"/>
<path d="M480.29 315.222C479.476 324.179 477.221 333.172 472.041 338.795L478.45 340.453C478.45 340.453 486.804 331.119 491.088 317.66C485.609 318.021 482.244 316.616 480.29 315.222Z" fill="white" stroke="#1C49B0" stroke-width="1.19242" stroke-linecap="round" stroke-linejoin="round"/>
<path d="M477.737 286.195C477.737 286.195 480.111 272.452 494.592 274.348C509.073 276.244 533.523 293.303 533.523 293.303C533.523 293.303 524.978 310.837 517.856 311.074C510.735 311.31 477.737 297.331 477.737 287.143" fill="#1C49B0"/>
<path d="M472.991 339.387L470.26 344.245L464.563 348.984L477.263 349.813L476.076 346.022L477.501 340.336" fill="#A5C5E8"/>
<path d="M472.991 339.387L470.26 344.245L464.563 348.984L477.263 349.813L476.076 346.022L477.501 340.336" stroke="#1C49B0" stroke-width="1.19242" stroke-linecap="round" stroke-linejoin="round"/>
<path d="M493.999 299.167C493.999 299.167 487.946 289.197 490.32 283.352C492.693 277.508 494.959 277.123 494.959 277.123C494.959 277.123 484.504 272.69 482.367 281.574C480.23 290.46 487.886 296.502 487.886 296.502L493.999 299.167Z" fill="#A5C5E8"/>
<path d="M496.611 296.897C496.611 296.897 487.709 277.982 502.347 279.403C514.559 280.589 521.424 293.282 519.367 296.52C517.309 299.758 496.611 296.897 496.611 296.897Z" fill="#A5C5E8"/>
<path d="M574.143 416.313L574.89 414.991L584.034 412.868L585.238 415.269C585.238 415.269 558.907 422.671 558.114 420.76C557.86 420.149 557.651 419.802 557.648 419.474L574.143 416.313Z" fill="#A5C5E8" stroke="#1C49B0" stroke-width="1.19242" stroke-linecap="round" stroke-linejoin="round"/>
<path d="M574.143 416.313L557.648 419.474C557.641 418.776 556.357 418.232 559.821 415.381C561.7 413.835 566.072 413.053 567.445 411.62C568.879 410.104 570.004 408.325 570.759 406.381C570.759 406.381 575.019 410.13 576.876 408.987C578.734 407.844 580.957 406.724 580.957 406.724L584.034 412.868L574.891 414.991L574.143 416.313Z" fill="#A5C5E8" stroke="#1C49B0" stroke-width="1.19242" stroke-linecap="round" stroke-linejoin="round"/>
<path d="M519.314 419.749L520.296 418.591L529.677 418.225L530.406 420.81C530.406 420.81 503.149 423.128 502.731 421.101C502.598 420.454 502.458 420.073 502.516 419.75L519.314 419.749Z" fill="#A5C5E8" stroke="#1C49B0" stroke-width="1.19242" stroke-linecap="round" stroke-linejoin="round"/>
<path d="M519.314 419.749L502.516 419.75C502.64 419.064 501.484 418.288 505.423 416.14C507.559 414.975 512.002 415.029 513.621 413.881C515.315 412.661 516.756 411.125 517.864 409.358C517.864 409.358 521.341 413.841 523.381 413.069C525.421 412.296 527.814 411.612 527.814 411.612L529.677 418.225L520.296 418.591L519.314 419.749Z" fill="#A5C5E8" stroke="#1C49B0" stroke-width="1.19242" stroke-linecap="round" stroke-linejoin="round"/>
<path d="M481.417 279.087L487.175 279.324C487.175 279.324 489.206 281.843 488.776 284.566C488.361 287.202 486.67 288.624 484.86 288.831C483.05 289.038 481.893 285.07 481.893 285.07" fill="white"/>
<path d="M481.417 279.087L487.175 279.324C487.175 279.324 489.206 281.843 488.776 284.566C488.361 287.202 486.67 288.624 484.86 288.831C483.05 289.038 481.893 285.07 481.893 285.07" stroke="#1C49B0" stroke-width="1.19242" stroke-linecap="round" stroke-linejoin="round"/>
<path d="M470.854 284.931C470.854 284.931 478.134 299.464 481.299 295.357C484.464 291.25 483.435 279.561 483.435 279.561C483.435 279.561 477.184 278.613 470.854 284.931Z" fill="white" stroke="#1C49B0" stroke-width="1.19242" stroke-linecap="round" stroke-linejoin="round"/>
<path d="M478.846 283.826L481.299 285.129C481.299 285.129 480.745 283.747 481.576 283.391C482.407 283.036 484.107 284.063 483.673 285.801L485.334 283.194L483.396 278.258" fill="#1C49B0"/>
<path d="M483.673 278.298C483.673 278.298 483.278 271.15 476.274 272.098C472.197 272.649 463.891 279.72 470.063 285.88C470.063 285.88 480.033 287.932 483.673 278.298Z" fill="#1C49B0"/>
<path d="M513.108 310.205C513.108 310.205 534.158 305.15 533.128 293.382L537.639 296.621C537.639 296.621 536.175 303.279 531.477 306.942C527.155 310.311 521.273 312.132 516.353 311.863L513.108 310.205Z" fill="white" stroke="#1C49B0" stroke-width="1.19242" stroke-linecap="round" stroke-linejoin="round"/>
<path d="M477.537 311.265L476.29 317.544L493.094 320.869L494.341 314.591L477.537 311.265Z" fill="#A5C5E8" stroke="#1C49B0" stroke-width="1.19242" stroke-linecap="round" stroke-linejoin="round"/>
<path d="M452.958 317.427C449.819 317.403 446.703 317.953 443.763 319.05C443.722 319.049 443.682 319.044 443.641 319.044C441.846 319.044 440.126 320.158 438.536 322.193C437.114 323.522 436.175 325.059 435.871 326.715C431.733 335.638 428.981 351.476 428.981 369.529C428.981 397.411 435.545 420.013 443.641 420.013C444.403 420.013 450.434 420.357 452.958 420.357C462.456 420.357 470.157 415.673 470.157 409.899V327.886C470.157 322.11 462.456 317.427 452.958 317.427Z" fill="white" stroke="#1C49B0" stroke-width="1.19242" stroke-linecap="round" stroke-linejoin="round"/>
<path d="M477.852 369.529C477.852 397.411 471.288 420.013 463.191 420.013C455.093 420.013 448.529 397.411 448.529 369.529C448.529 341.647 455.093 319.044 463.191 319.044C471.288 319.044 477.852 341.647 477.852 369.529Z" fill="#A5C5E8" stroke="#1C49B0" stroke-width="1.19242" stroke-miterlimit="10"/>
<path d="M543.401 369.054C543.401 366.103 544.576 363.273 546.667 361.187C548.757 359.101 551.593 357.929 554.549 357.929H607.35C610.306 357.929 613.141 359.101 615.232 361.187C617.323 363.273 618.497 366.103 618.498 369.054C618.497 372.005 617.323 374.835 615.232 376.921C613.142 379.008 610.306 380.18 607.35 380.18H554.549C551.593 380.18 548.757 379.008 546.666 376.921C544.576 374.835 543.401 372.005 543.401 369.054Z" fill="white" stroke="#1C49B0" stroke-width="1.19242" stroke-linecap="round" stroke-linejoin="round"/>
<path d="M611.76 360.536C611.581 362.954 610.493 365.216 608.714 366.867C606.934 368.518 604.594 369.436 602.165 369.437H556.55C554.623 369.44 552.741 368.863 551.148 367.782C551.13 368.017 551.111 368.252 551.111 368.492C551.112 371.042 552.126 373.487 553.933 375.289C555.739 377.092 558.189 378.105 560.743 378.105H606.357C608.418 378.105 610.424 377.445 612.082 376.223C613.739 375.001 614.96 373.28 615.565 371.313C616.169 369.347 616.126 367.239 615.441 365.299C614.756 363.359 613.466 361.69 611.76 360.536Z" fill="#A5C5E8"/>
<path d="M519.934 364.955C519.933 362.225 520.472 359.522 521.518 357C522.565 354.477 524.099 352.185 526.033 350.255C527.967 348.324 530.264 346.793 532.791 345.748C535.318 344.704 538.026 344.166 540.761 344.166C543.497 344.166 546.205 344.704 548.732 345.748C551.259 346.793 553.555 348.324 555.489 350.255C557.423 352.185 558.957 354.477 560.004 357C561.05 359.522 561.589 362.225 561.588 364.955V373.152C561.589 375.882 561.051 378.586 560.004 381.108C558.958 383.631 557.424 385.922 555.49 387.853C553.556 389.784 551.259 391.315 548.732 392.36C546.205 393.404 543.497 393.942 540.761 393.942C538.026 393.942 535.318 393.404 532.79 392.36C530.263 391.315 527.967 389.783 526.033 387.853C524.099 385.922 522.565 383.631 521.518 381.108C520.472 378.586 519.933 375.882 519.934 373.152V364.955Z" fill="white" stroke="#1C49B0" stroke-width="1.19242" stroke-linecap="round" stroke-linejoin="round"/>
<path d="M549.427 381.14C546.958 381.141 544.513 380.655 542.232 379.712C539.951 378.769 537.878 377.387 536.132 375.645C534.386 373.902 533.001 371.833 532.057 369.556C531.112 367.279 530.626 364.839 530.626 362.374V354.975C530.623 352.477 531.122 350.003 532.092 347.699C529.223 349.342 526.84 351.712 525.182 354.569C523.525 357.426 522.653 360.669 522.654 363.97V371.37C522.654 375.703 524.157 379.902 526.906 383.255C529.656 386.608 533.483 388.908 537.739 389.765C541.994 390.622 546.415 389.983 550.253 387.956C554.09 385.93 557.106 382.64 558.789 378.647C555.942 380.284 552.713 381.144 549.427 381.14Z" fill="#A5C5E8"/>
<path d="M517.001 329.82H475.346C472.03 329.818 468.752 330.52 465.728 331.879C457.841 348.847 454.202 386.73 465.731 406.229C468.753 407.588 472.031 408.289 475.346 408.287H517.001C520.082 408.287 523.134 407.681 525.981 406.504C528.829 405.328 531.416 403.602 533.595 401.427C535.774 399.253 537.503 396.671 538.682 393.829C539.862 390.987 540.469 387.941 540.468 384.865V353.243C540.468 350.167 539.861 347.121 538.682 344.279C537.503 341.437 535.774 338.855 533.595 336.68C531.416 334.505 528.829 332.78 525.981 331.603C523.134 330.426 520.083 329.82 517.001 329.82Z" fill="white" stroke="#1C49B0" stroke-width="1.19242" stroke-linecap="round" stroke-linejoin="round"/>
<path d="M531.858 393.585H494.425C491.446 393.587 488.5 392.957 485.784 391.737C477.181 377.186 477.981 351.256 482.555 334.143H476.747C473.767 334.141 470.821 334.771 468.104 335.992C461.016 351.241 457.745 385.285 468.106 402.808C470.823 404.029 473.768 404.658 476.747 404.656H514.18C517.994 404.658 521.736 403.627 525.009 401.673C528.282 399.719 530.962 396.916 532.765 393.562C532.464 393.575 532.162 393.585 531.858 393.585Z" fill="#A5C5E8"/>
<path d="M508.04 315.046C508.96 309.588 509.322 297.391 507.546 291.408C502.674 274.995 495.467 285.143 495.467 291.205C495.467 291.205 496.268 302.734 495.733 315.516C499.84 315.844 503.971 315.686 508.04 315.046Z" fill="#A5C5E8" stroke="#1C49B0" stroke-width="1.19242" stroke-linecap="round" stroke-linejoin="round"/>
<path d="M495.733 315.516C495.3 325.85 493.96 338.128 487.911 344.696L492.503 345.993C492.503 345.993 505.122 332.361 508.04 315.046C503.97 315.686 499.839 315.844 495.733 315.516Z" fill="white" stroke="#1C49B0" stroke-width="1.19242" stroke-linecap="round" stroke-linejoin="round"/>
<path d="M510.181 314.337H492.85V321.603H510.181V314.337Z" fill="#A5C5E8" stroke="#1C49B0" stroke-width="1.19242" stroke-linecap="round" stroke-linejoin="round"/>
<path d="M493.418 344.514L488.437 342.582C488.176 342.624 487.923 342.699 487.682 342.806C487.31 342.976 487.444 344.185 487.444 344.185C487.444 344.185 484.443 346.297 483.025 348.568C481.607 350.84 478.685 352.449 479.841 352.957C480.999 353.467 481.917 351.389 482.393 351.874C482.631 352.117 481.939 354.078 480.842 355.819C479.745 357.56 478.244 359.078 479.129 359.261C480.901 359.628 484.255 353.983 484.255 353.983C484.255 353.983 483.582 355.969 482.744 357.991C481.845 360.162 480.809 362.393 481.846 362.799C482.742 363.15 483.544 361.146 484.601 359.253C485.309 358.013 486.087 356.815 486.932 355.665C486.932 355.665 484.68 362.414 485.679 362.028C486.679 361.641 488.55 355.588 488.968 355.761C489.386 355.934 488.229 360.234 488.96 360.142C489.691 360.05 491.941 352.77 491.941 352.77C491.941 352.77 493.854 348.742 493.051 346.183C493.051 346.183 494.273 345.212 493.418 344.514Z" fill="#1C49B0"/>
<path d="M548.337 303.982C548.521 304.269 548.647 304.589 548.707 304.924C548.767 305.26 548.76 305.604 548.687 305.937C548.614 306.269 548.476 306.585 548.28 306.864C548.085 307.144 547.837 307.382 547.549 307.566L541.638 311.343C541.351 311.527 541.03 311.653 540.693 311.712C540.357 311.772 540.013 311.766 539.679 311.693C539.346 311.62 539.03 311.482 538.75 311.287C538.47 311.092 538.231 310.844 538.047 310.557L530.338 298.538C530.154 298.251 530.028 297.931 529.968 297.596C529.908 297.26 529.914 296.916 529.988 296.583C530.061 296.251 530.199 295.935 530.394 295.656C530.589 295.376 530.838 295.138 531.125 294.954L537.036 291.177C537.324 290.993 537.645 290.867 537.981 290.808C538.317 290.748 538.662 290.754 538.995 290.827C539.329 290.9 539.645 291.038 539.925 291.233C540.205 291.428 540.444 291.676 540.628 291.963L548.337 303.982Z" fill="#A5C5E8" stroke="#1C49B0" stroke-width="1.19242" stroke-linecap="round" stroke-linejoin="round"/>
<path d="M533.31 302.57C533.31 302.57 540.761 302.276 543.911 296.72L533.31 302.57Z" fill="#A5C5E8"/>
<path d="M533.31 302.57C533.31 302.57 540.761 302.276 543.911 296.72" stroke="#1C49B0" stroke-width="1.19242" stroke-linecap="round" stroke-linejoin="round"/>
<path d="M530.183 257.535C530.183 258.613 529.97 259.68 529.557 260.676C529.143 261.671 528.538 262.576 527.774 263.338C527.011 264.1 526.104 264.705 525.107 265.117C524.109 265.529 523.04 265.742 521.96 265.742H494.553C492.372 265.742 490.281 264.877 488.739 263.338C487.197 261.799 486.331 259.712 486.331 257.535C486.331 255.359 487.197 253.271 488.739 251.732C490.281 250.193 492.372 249.329 494.553 249.329H521.96C523.04 249.329 524.109 249.541 525.107 249.953C526.104 250.366 527.011 250.97 527.774 251.732C528.538 252.494 529.143 253.399 529.557 254.395C529.97 255.39 530.183 256.457 530.183 257.535Z" fill="#1C49B0"/>
<path d="M496.076 257.535H486.331V265.708H496.076V257.535Z" fill="#1C49B0"/>
<path d="M219.823 242.996H179.959C173.355 242.996 168 249.086 168 256.598C168 264.11 173.355 270.2 179.959 270.2H219.823C220.179 270.2 220.53 270.178 220.879 270.144H231.782V256.598C231.782 249.086 226.427 242.996 219.823 242.996Z" fill="#1C49B0"/>
<path d="M501.557 257.265C501.557 257.505 501.486 257.74 501.352 257.94C501.218 258.14 501.028 258.296 500.805 258.388C500.583 258.48 500.338 258.504 500.102 258.457C499.865 258.41 499.648 258.294 499.478 258.124C499.307 257.954 499.191 257.738 499.144 257.502C499.097 257.266 499.122 257.022 499.214 256.799C499.306 256.577 499.462 256.387 499.663 256.254C499.863 256.12 500.098 256.049 500.339 256.049C500.499 256.049 500.658 256.08 500.806 256.141C500.953 256.202 501.088 256.292 501.201 256.405C501.314 256.518 501.404 256.652 501.465 256.799C501.526 256.947 501.557 257.105 501.557 257.265Z" fill="white"/>
<path d="M509.475 257.265C509.475 257.505 509.403 257.74 509.27 257.94C509.136 258.14 508.945 258.296 508.723 258.388C508.5 258.48 508.255 258.504 508.019 258.457C507.783 258.41 507.566 258.294 507.395 258.124C507.225 257.954 507.109 257.738 507.062 257.502C507.015 257.266 507.039 257.021 507.131 256.799C507.224 256.577 507.38 256.387 507.58 256.254C507.78 256.12 508.016 256.049 508.257 256.049C508.417 256.049 508.575 256.08 508.723 256.141C508.871 256.202 509.005 256.292 509.118 256.405C509.231 256.518 509.321 256.652 509.382 256.799C509.443 256.947 509.475 257.105 509.475 257.265Z" fill="white"/>
<path d="M517.393 257.265C517.393 257.505 517.321 257.74 517.187 257.94C517.053 258.14 516.863 258.296 516.641 258.388C516.418 258.48 516.173 258.504 515.937 258.457C515.701 258.41 515.483 258.294 515.313 258.124C515.143 257.954 515.027 257.737 514.98 257.502C514.933 257.266 514.957 257.021 515.049 256.799C515.142 256.577 515.298 256.387 515.498 256.254C515.698 256.12 515.934 256.049 516.175 256.049C516.335 256.049 516.493 256.08 516.641 256.141C516.789 256.203 516.923 256.292 517.036 256.405C517.149 256.518 517.239 256.652 517.3 256.799C517.361 256.947 517.393 257.105 517.393 257.265Z" fill="white"/>
<path d="M189.022 259.123H187.601L187.009 262.737H185.251L185.843 259.123H183.883V257.51H186.108L186.497 255.183H184.545V253.571H186.761L187.371 249.904H189.119L188.519 253.571H189.941L190.55 249.904H192.307L191.698 253.571H193.738V255.183H191.433L191.044 257.51H193.067V259.123H190.779L190.188 262.737H188.43L189.022 259.123ZM187.865 257.51H189.287L189.676 255.183H188.254L187.865 257.51Z" fill="white"/>
<path d="M201.204 259.123H199.782L199.19 262.737H197.433L198.024 259.123H196.064V257.51H198.289L198.678 255.183H196.726V253.571H198.943L199.552 249.904H201.301L200.7 253.571H202.122L202.731 249.904H204.488L203.879 253.571H205.919V255.183H203.614L203.226 257.51H205.248V259.123H202.961L202.369 262.737H200.612L201.204 259.123ZM200.046 257.51H201.468L201.857 255.183H200.435L200.046 257.51Z" fill="white"/>
<path d="M213.384 259.123H211.962L211.371 262.737H209.613L210.205 259.123H208.245V257.51H210.47L210.858 255.183H208.907V253.571H211.123L211.733 249.904H213.481L212.881 253.571H214.302L214.912 249.904H216.669L216.06 253.571H218.1V255.183H215.795L215.406 257.51H217.429V259.123H215.141L214.55 262.737H212.792L213.384 259.123ZM212.227 257.51H213.649L214.038 255.183H212.616L212.227 257.51Z" fill="white"/>
</svg>
