<svg width="34" height="34" viewBox="0 0 34 34" fill="none" xmlns="http://www.w3.org/2000/svg">
<g id="fast">
<path id="Vector" d="M24.5652 17.0468L18.7339 13.5646L21.6736 6.29567C21.7762 6.07978 21.824 5.8406 21.8124 5.60052C21.8008 5.36044 21.7304 5.1273 21.6076 4.92292C21.4847 4.71855 21.3136 4.54961 21.1102 4.43192C20.9068 4.31423 20.6777 4.25164 20.4444 4.25C20.1343 4.24924 19.8331 4.35603 19.5891 4.55317L19.4929 4.63817L9.18037 14.6965C9.02534 14.8482 8.90671 15.035 8.83385 15.2421C8.76099 15.4491 8.7359 15.6709 8.76058 15.8897C8.78526 16.1085 8.85902 16.3183 8.97603 16.5027C9.09304 16.6871 9.25009 16.8408 9.43474 16.9518L15.2675 20.4368L12.2934 27.7893C12.1707 28.0892 12.1521 28.4236 12.2407 28.7359C12.3293 29.0483 12.5197 29.3197 12.7798 29.5044C13.0399 29.689 13.3539 29.7757 13.6687 29.7497C13.9836 29.7237 14.2802 29.5868 14.5085 29.3618L24.821 19.3007C24.9757 19.1489 25.094 18.9621 25.1666 18.7551C25.2392 18.5481 25.2641 18.3265 25.2393 18.1079C25.2144 17.8893 25.1406 17.6797 25.0237 17.4955C24.9067 17.3113 24.7498 17.1577 24.5652 17.0468Z" fill="#1C49B0"/>
</g>
</svg>
