<svg width="32" height="32" viewBox="0 0 32 32" fill="none" xmlns="http://www.w3.org/2000/svg">
<g id="gem">
<path id="Icon" d="M4.15012 12.0002H27.85M9.39828 4.06753L16.0001 12.0003L22.613 4.07309M27.5814 11.3723L22.9834 4.47521C22.8676 4.30155 22.8097 4.21472 22.7332 4.15186C22.6655 4.09621 22.5875 4.05446 22.5037 4.02899C22.4089 4.00022 22.3046 4.00022 22.0959 4.00022H9.90426C9.69555 4.00022 9.59119 4.00022 9.49646 4.02899C9.4126 4.05446 9.33459 4.09621 9.26688 4.15186C9.1904 4.21472 9.13251 4.30155 9.01674 4.47521L4.41869 11.3723C4.26797 11.5984 4.19261 11.7114 4.1656 11.833C4.14174 11.9404 4.14484 12.0521 4.17462 12.158C4.20833 12.2779 4.28984 12.3866 4.45288 12.604L15.1467 26.8624C15.4362 27.2484 15.581 27.4414 15.7584 27.5104C15.9138 27.5709 16.0863 27.5709 16.2417 27.5104C16.4192 27.4414 16.5639 27.2484 16.8534 26.8624L27.5473 12.604C27.7103 12.3866 27.7918 12.2779 27.8255 12.158C27.8553 12.0521 27.8584 11.9404 27.8345 11.833C27.8075 11.7114 27.7322 11.5984 27.5814 11.3723Z" stroke="#1B223C" stroke-width="2" stroke-linecap="round" stroke-linejoin="round"/>
</g>
</svg>
