<svg width="19" height="30" viewBox="0 0 19 30" fill="none" xmlns="http://www.w3.org/2000/svg">
<g id="Group">
<path id="Vector" d="M14.5657 1.90111C15.0359 1.90111 15.4869 2.09827 15.8195 2.4492C16.152 2.80013 16.3388 3.27609 16.3388 3.77238V26.2276C16.3388 26.7239 16.152 27.1999 15.8195 27.5508C15.4869 27.9017 15.0359 28.0989 14.5657 28.0989H3.92686C3.4566 28.0989 3.0056 27.9017 2.67307 27.5508C2.34054 27.1999 2.15373 26.7239 2.15373 26.2276V3.77238C2.15373 3.27609 2.34054 2.80013 2.67307 2.4492C3.0056 2.09827 3.4566 1.90111 3.92686 1.90111H14.5657ZM3.92686 0.0298462C2.98634 0.0298462 2.08433 0.424148 1.41927 1.12601C0.75422 1.82787 0.380596 2.7798 0.380596 3.77238V26.2276C0.380596 27.2202 0.75422 28.1721 1.41927 28.874C2.08433 29.5758 2.98634 29.9701 3.92686 29.9701H14.5657C15.5062 29.9701 16.4082 29.5758 17.0733 28.874C17.7383 28.1721 18.1119 27.2202 18.1119 26.2276V3.77238C18.1119 2.7798 17.7383 1.82787 17.0733 1.12601C16.4082 0.424148 15.5062 0.0298462 14.5657 0.0298462L3.92686 0.0298462Z" fill="#1C49B0"/>
<path id="Vector_2" d="M9.24627 26.4179C9.76878 26.4179 10.2699 26.2041 10.6394 25.8234C11.0088 25.4427 11.2164 24.9264 11.2164 24.3881C11.2164 23.8497 11.0088 23.3334 10.6394 22.9527C10.2699 22.5721 9.76878 22.3582 9.24627 22.3582C8.72375 22.3582 8.22264 22.5721 7.85316 22.9527C7.48369 23.3334 7.27612 23.8497 7.27612 24.3881C7.27612 24.9264 7.48369 25.4427 7.85316 25.8234C8.22264 26.2041 8.72375 26.4179 9.24627 26.4179Z" fill="#1C49B0"/>
</g>
</svg>
