<svg width="34" height="34" viewBox="0 0 34 34" fill="none" xmlns="http://www.w3.org/2000/svg">
<g id="offiline" clip-path="url(#clip0_73_21)">
<path id="Vector" d="M29.375 30.8125C29.2396 30.8127 29.1054 30.7853 28.9803 30.7319C28.8552 30.6784 28.7416 30.6 28.646 30.501L3.89603 5.00105C3.7108 4.80017 3.60906 4.53268 3.6125 4.25562C3.61595 3.97856 3.7243 3.71385 3.91447 3.51793C4.10463 3.322 4.36156 3.21036 4.63047 3.20681C4.89938 3.20327 5.15899 3.30809 5.35396 3.49894L30.104 28.9989C30.2481 29.1475 30.3462 29.3368 30.386 29.5428C30.4257 29.7489 30.4053 29.9624 30.3273 30.1565C30.2493 30.3506 30.1172 30.5165 29.9477 30.6333C29.7782 30.75 29.5789 30.8124 29.375 30.8125ZM2.99563 13.0674C1.36303 14.6014 0.5 16.6959 0.5 19.125C0.5 21.5156 1.42684 23.6991 3.10971 25.2735C4.7307 26.7903 6.91695 27.625 9.26562 27.625H21.6922C21.7942 27.6251 21.894 27.594 21.9789 27.5356C22.0637 27.4772 22.1299 27.3942 22.1689 27.2971C22.208 27.2 22.2182 27.0931 22.1983 26.99C22.1784 26.8869 22.1292 26.7922 22.057 26.7179L7.00203 11.2067C6.93589 11.1384 6.85295 11.09 6.76211 11.0666C6.67127 11.0432 6.57596 11.0457 6.48641 11.0739C5.14062 11.4982 3.9418 12.1776 2.99563 13.0674ZM31.2177 25.9801C32.7111 24.7549 33.5 22.936 33.5 20.7187C33.5 16.8957 30.793 14.7037 27.8565 14.0283C27.6633 13.983 27.4869 13.8813 27.3484 13.7353C27.2099 13.5894 27.1151 13.4055 27.0753 13.2055C26.5803 10.7698 25.4994 8.67995 23.9055 7.09616C22.0503 5.25861 19.5734 4.23774 17 4.24999C14.9942 4.24999 13.1251 4.84765 11.546 5.98319C11.4834 6.02727 11.4311 6.085 11.3927 6.15229C11.3543 6.21957 11.3307 6.29476 11.3237 6.37249C11.3167 6.45022 11.3264 6.52859 11.3521 6.60202C11.3778 6.67545 11.4189 6.74214 11.4725 6.79734L30.2567 26.1508C30.342 26.2387 30.4545 26.293 30.5746 26.3043C30.6947 26.3155 30.8148 26.2831 30.9141 26.2125C31.0186 26.1382 31.1197 26.0607 31.2177 25.9801Z" fill="#1C49B0"/>
</g>
<defs>
<clipPath id="clip0_73_21">
<rect width="33" height="34" fill="white" transform="translate(0.5)"/>
</clipPath>
</defs>
</svg>
