<svg width="32" height="32" viewBox="0 0 32 32" fill="none" xmlns="http://www.w3.org/2000/svg">
<g id="bullseye-arrow">
<path id="Icon" d="M28 16C28 22.6274 22.6274 28 16 28C9.37258 28 4 22.6274 4 16C4 9.37258 9.37258 4 16 4M22.6667 16C22.6667 19.6819 19.6819 22.6667 16 22.6667C12.3181 22.6667 9.33333 19.6819 9.33333 16C9.33333 12.3181 12.3181 9.33333 16 9.33333M19.6772 12.4688L24.9558 13.0232L27.8172 9.01723L24.3835 7.87266L23.239 4.43895L19.233 7.30038L19.6772 12.4688ZM19.6772 12.4688L16 15.9999" stroke="white" stroke-width="2" stroke-linecap="round" stroke-linejoin="round"/>
</g>
</svg>
