<svg width="34" height="34" viewBox="0 0 34 34" fill="none" xmlns="http://www.w3.org/2000/svg">
<g id="print">
<path id="Vector" d="M26.625 11.3333H7.375C5.0925 11.3333 3.25 13.2317 3.25 15.5833V21.25C3.25 22.8083 4.4875 24.0833 6 24.0833H8.75V26.9167C8.75 28.475 9.9875 29.75 11.5 29.75H22.5C24.0125 29.75 25.25 28.475 25.25 26.9167V24.0833H28C29.5125 24.0833 30.75 22.8083 30.75 21.25V15.5833C30.75 13.2317 28.9075 11.3333 26.625 11.3333ZM21.125 26.9167H12.875C12.1187 26.9167 11.5 26.2792 11.5 25.5V19.8333H22.5V25.5C22.5 26.2792 21.8813 26.9167 21.125 26.9167ZM26.625 17C25.8687 17 25.25 16.3625 25.25 15.5833C25.25 14.8042 25.8687 14.1667 26.625 14.1667C27.3813 14.1667 28 14.8042 28 15.5833C28 16.3625 27.3813 17 26.625 17ZM23.875 4.25H10.125C9.36875 4.25 8.75 4.8875 8.75 5.66667V8.5C8.75 9.27917 9.36875 9.91667 10.125 9.91667H23.875C24.6313 9.91667 25.25 9.27917 25.25 8.5V5.66667C25.25 4.8875 24.6313 4.25 23.875 4.25Z" fill="#1C49B0"/>
</g>
</svg>
