<svg width="25" height="24" viewBox="0 0 25 24" fill="none" xmlns="http://www.w3.org/2000/svg">
<g id="mdi:twitter">
<path id="Vector" d="M23.2933 6C22.5233 6.35 21.6933 6.58 20.8333 6.69C21.7133 6.16 22.3933 5.32 22.7133 4.31C21.8833 4.81 20.9633 5.16 19.9933 5.36C19.2033 4.5 18.0933 4 16.8333 4C14.4833 4 12.5633 5.92 12.5633 8.29C12.5633 8.63 12.6033 8.96 12.6733 9.27C9.11334 9.09 5.94334 7.38 3.83334 4.79C3.46334 5.42 3.25334 6.16 3.25334 6.94C3.25334 8.43 4.00334 9.75 5.16334 10.5C4.45334 10.5 3.79334 10.3 3.21334 10V10.03C3.21334 12.11 4.69334 13.85 6.65334 14.24C6.02407 14.4122 5.36344 14.4362 4.72334 14.31C4.99495 15.1625 5.52688 15.9084 6.24436 16.4429C6.96184 16.9775 7.82879 17.2737 8.72334 17.29C7.20697 18.4904 5.32734 19.1393 3.39334 19.13C3.05334 19.13 2.71334 19.11 2.37334 19.07C4.27334 20.29 6.53334 21 8.95334 21C16.8333 21 21.1633 14.46 21.1633 8.79C21.1633 8.6 21.1633 8.42 21.1533 8.23C21.9933 7.63 22.7133 6.87 23.2933 6Z" fill="white"/>
</g>
</svg>
