<svg width="25" height="24" viewBox="0 0 25 24" fill="none" xmlns="http://www.w3.org/2000/svg">
<g id="ic:twotone-whatsapp">
<path id="Vector" d="M19.55 4.91006C18.6332 3.98399 17.5412 3.24973 16.3376 2.75011C15.1341 2.25049 13.8431 1.99552 12.54 2.00006C7.08 2.00006 2.63 6.45006 2.63 11.9101C2.63 13.6601 3.09 15.3601 3.95 16.8601L2.55 22.0001L7.8 20.6201C9.25 21.4101 10.88 21.8301 12.54 21.8301C18 21.8301 22.45 17.3801 22.45 11.9201C22.45 9.27006 21.42 6.78006 19.55 4.91006ZM12.54 20.1501C11.06 20.1501 9.61 19.7501 8.34 19.0001L8.04 18.8201L4.92 19.6401L5.75 16.6001L5.55 16.2901C4.72775 14.977 4.29114 13.4593 4.29 11.9101C4.29 7.37006 7.99 3.67006 12.53 3.67006C14.73 3.67006 16.8 4.53006 18.35 6.09006C19.1175 6.85402 19.7257 7.76272 20.1394 8.76348C20.5531 9.76425 20.764 10.8372 20.76 11.9201C20.78 16.4601 17.08 20.1501 12.54 20.1501ZM17.06 13.9901C16.81 13.8701 15.59 13.2701 15.37 13.1801C15.14 13.1001 14.98 13.0601 14.81 13.3001C14.64 13.5501 14.17 14.1101 14.03 14.2701C13.89 14.4401 13.74 14.4601 13.49 14.3301C13.24 14.2101 12.44 13.9401 11.5 13.1001C10.76 12.4401 10.27 11.6301 10.12 11.3801C9.98 11.1301 10.1 11.0001 10.23 10.8701C10.34 10.7601 10.48 10.5801 10.6 10.4401C10.72 10.3001 10.77 10.1901 10.85 10.0301C10.93 9.86006 10.89 9.72006 10.83 9.60006C10.77 9.48006 10.27 8.26006 10.07 7.76006C9.87 7.28006 9.66 7.34006 9.51 7.33006H9.03C8.86 7.33006 8.6 7.39006 8.37 7.64006C8.15 7.89006 7.51 8.49006 7.51 9.71006C7.51 10.9301 8.4 12.1101 8.52 12.2701C8.64 12.4401 10.27 14.9401 12.75 16.0101C13.34 16.2701 13.8 16.4201 14.16 16.5301C14.75 16.7201 15.29 16.6901 15.72 16.6301C16.2 16.5601 17.19 16.0301 17.39 15.4501C17.6 14.8701 17.6 14.3801 17.53 14.2701C17.46 14.1601 17.31 14.1101 17.06 13.9901Z" fill="white"/>
</g>
</svg>
