<svg fill="currentColor" height="24" viewBox="0 0 508 508" width="24" xmlns="http://www.w3.org/2000/svg"><path d="m500.6
269.437c-13.4-7.3-26.3-15-39-23 .3-5.2.6-10.3.6-15.4 0-127.4-103.6-231-231-231-127.5.001-231.2
103.701-231.2 231.1s103.7 231 231.1 231c24.3 0 48.1-3.8 70.8-11.1 25.5 22.5 58.7 43.5 77.7 54.9 4.7
2.7 9.5 2.7 14.4 0 34.4-20.2 114-71.2
114-106.3v-117.8c0-5.099-2.8-9.9-7.4-12.4zm-342.1-227.599c-12.8 16.4-23.7 37.2-32.2
61.2h-52.4c22.2-27.2 51.3-48.401 84.6-61.2zm-103.9 89.4h63.1c-6.6 26.1-10.7 55-11.7
85.8h-77.2c2.1-31 11.2-60.101 25.8-85.8zm0 199.699c-14.6-25.6-23.7-54.7-25.8-85.7h77.3c1 30.7 5 59.6
11.6 85.7zm19.3 28.2h52.4c8.5 24 19.5 44.8 32.2 61.3-33.3-12.8-62.4-34.1-84.6-61.3zm143.1
72.601c-24-7.7-45.5-34.5-60.5-72.5h60.5zm0-100.801h-69.9c-7.2-25.8-11.7-54.9-12.8-85.7h82.7zm0-113.899h-82.7c1.1-30.8
5.6-60 12.8-85.8h69.9zm0-114h-60.5c15.1-38 36.5-64.8 60.5-72.5zm190.5 28.2c14.6 25.6 23.7 54.7 25.9
85.8h-15.3c-7.4-5.5-14.8-11.1-21.9-16.8-5.2-4.2-12.5-4.2-17.7 0-7.1 5.7-14.4 11.3-21.9
16.8h-.5c-1-30.7-5-59.6-11.6-85.8zm-19.3-28.2h-52.3c-8.5-24-19.5-44.8-32.2-61.3 33.3 12.8 62.4 34.1
84.5 61.3zm-143-72.5c24 7.7 45.4 34.5 60.4 72.5h-60.4zm0 100.7h69.8c7.2 25.8 11.7 54.9 12.8
85.8h-82.6zm0 300.399v-72.4h21.5v40.4c0 4.9 1.6 10 4.3 15.4-6.9 6.8-15.6 13.201-25.8
16.6zm21.5-149.8v49.1h-21.5v-85.7h69.9c-13.3 8.4-26.9 16.6-41 24.2-4.5 2.5-7.4 7.301-7.4 12.4zm213.1
117.8c-.5 11.9-43.1 47.4-92.8 77.8-49.3-30.5-91.5-65.9-92-77.8v-109.4c32.9-18.3 63.9-38.8 92.4-61
28.5 22.2 59.6 42.7 92.4 61z"/><path d="m449.6 309.238c-5.5-5.5-14.4-5.5-20 0l-56.8
56.8-27.7-27.7c-5.5-5.5-14.4-5.5-20 0-5.5 5.5-5.5 14.4 0 20l37.7 37.7c5.6 5.4 14.2 5.6 20
0l66.8-66.8c5.5-5.601 5.5-14.5 0-20z"/></svg>
