<svg height="24" viewBox="0 0 511.996 511.996" width="24" xmlns="http://www.w3.org/2000/svg"><path d="m244.606 137.494c-26.153 0-47.432 21.278-47.432 47.431s21.278 47.432 47.432 47.432 47.431-21.278 47.431-47.432c-.001-26.155-21.278-47.431-47.431-47.431zm0 77.383c-16.515 0-29.953-13.437-29.953-29.953s13.437-29.952 29.953-29.952c16.515 0 29.952 13.437 29.952 29.952-.001 16.516-13.438 29.953-29.952 29.953z"/><path d="m452.072 123.043c-17.141 0-31.087 13.946-31.087 31.087s13.946 31.087 31.087 31.087 31.087-13.946 31.087-31.087c-.001-17.141-13.947-31.087-31.087-31.087zm0 44.695c-7.503 0-13.608-6.105-13.608-13.608s6.104-13.608 13.608-13.608 13.608 6.105 13.608 13.608c-.001 7.504-6.105 13.608-13.608 13.608z"/><path d="m476.794 39.399-127.09-.005c-19.411 0-35.203 15.797-35.203 35.214v40.122h-52.404c-.012 0-.022-.001-.034-.001h-190.821c-.022 0-.044.001-.068.001h-33.824c-20.595 0-37.35 16.756-37.35 37.35v224.414c0 20.595 16.755 37.35 37.35 37.35h133.817l-11.799 47.928c-.01.041-.014.083-.023.124-.048.21-.086.423-.119.639-.016.104-.035.207-.048.312-.024.207-.035.418-.044.632-.005.107-.015.216-.016.324 0 .021-.003.041-.003.061 0 .261.016.519.038.774.003.033.001.066.005.099.031.32.083.636.148.946.008.04.021.078.03.119.061.267.132.53.216.787.024.073.054.146.08.219.079.22.164.437.26.649.04.087.083.174.126.26.096.193.197.383.305.568.054.091.107.181.164.27.114.179.237.352.364.522.043.058.079.121.125.179.02.024.043.047.063.071.154.192.317.374.486.552.045.048.086.099.133.146.217.218.444.423.683.616.063.051.129.096.193.146.182.14.367.275.559.401.083.054.169.103.254.154.183.111.369.217.562.313.089.045.178.087.268.129.197.092.396.175.601.252.09.034.179.068.269.099.212.072.428.133.646.189.089.023.175.049.263.068.231.051.465.09.703.121.079.01.157.027.238.036.315.034.634.055.957.055h105.359 69.171c4.828 0 8.74-3.913 8.74-8.74 0-4.826-3.912-8.739-8.74-8.739h-58.021l10.161-41.278 152.849-.005c18.427 0 33.42-14.986 33.42-33.408v-75.6c17.535-1.994 31.204-16.913 31.204-34.972v-195.257c.003-19.414-15.791-35.206-35.203-35.206zm-116.852 35.206c0-9.774 7.952-17.726 17.727-17.726h99.125c9.775-.001 17.727 7.951 17.727 17.726v10.303h-134.579zm-.001 27.78h134.579v138.593h-4.179l-43.979-48.396c-1.657-1.822-4.006-2.862-6.468-2.862s-4.811 1.039-6.468 2.862l-12.486 13.738-31.006-34.107c-1.656-1.821-4.005-2.861-6.467-2.861-2.461 0-4.81 1.039-6.466 2.862l-17.059 18.768v-88.597zm106.782 138.593h-14.276l-19.695-21.664 7.142-7.859zm-106.78-24.707.347.315 23.179-25.501 45.358 49.893h-68.884zm-27.963-141.662c0-8.911 6.609-16.288 15.175-17.53-2.978 5.166-4.693 11.147-4.693 17.527v195.254c0 6.375 1.712 12.355 4.688 17.518-8.564-1.245-15.171-8.615-15.171-17.518v-195.251zm-276.679 236.823 70.306-72.26 93.467 102.804h-163.773zm147.222-13.656 20.999-23.107 61.163 67.305h-41.991v.001zm-160.648 98.588h-4.525c-10.957.001-19.871-8.913-19.871-19.87v-224.414c0-10.957 8.914-19.871 19.871-19.871h4.525c-2.583 4.74-4.053 10.172-4.053 15.938v232.283c0 5.766 1.469 11.195 4.053 15.934zm224.489 58.758h-87.358l10.161-41.278h87.358zm196.953-74.69c0 8.783-7.151 15.929-15.941 15.929h-376.134c-8.79 0-15.941-7.145-15.941-15.929v-20.977h408.016zm0-38.456h-155.014l-78.312-86.178c-1.657-1.822-4.005-2.862-6.468-2.862-2.462 0-4.811 1.039-6.467 2.862l-26.344 28.987-58.423-64.245c-1.622-1.783-3.908-2.818-6.318-2.858-2.434-.008-4.731.916-6.411 2.644l-64.258 66.043v-138.221c0-8.778 7.133-15.92 15.907-15.938h243.293v137.65c0 19.41 15.792 35.202 35.203 35.202l113.613.003v36.911zm31.204-72.117c0 9.775-7.952 17.727-17.727 17.727l-99.193-.003c-9.744-.037-17.66-7.972-17.66-17.724v-11.402h134.579v11.402z"/></svg>