<svg height="24" viewBox="0 0 502.664 502.664" width="24" xmlns="http://www.w3.org/2000/svg"><path d="m310.166 397.593h-234.215v-335.922h234.151v25.13h31.472v-31.99c.021-30.134-24.721-54.811-54.834-54.811h-187.385c-30.156 0-54.833 24.677-54.833 54.811v393.02c0 30.178 24.677 54.833 54.833 54.833h187.385c30.113 0 54.855-24.655 54.855-54.833v-50.821h-31.429zm-117.151 77.633c-13.892 0-25.108-11.238-25.108-25.108 0-13.913 11.217-25.13 25.108-25.13 13.913 0 25.152 11.238 25.152 25.13 0 13.87-11.238 25.108-25.152 25.108z"/><path d="m102.785 95.386h70.256v42.84h-70.256z"/><path d="m102.785 205.073h70.256v42.84h-70.256z"/><path d="m102.785 319.873h70.256v42.818h-70.256z"/><path d="m422.399 223.905c-2.481-12.986-7.507-25.001-14.625-35.506l25.195-25.216-25.734-25.648-25.152 25.173c-10.462-7.161-22.541-12.123-35.484-14.625v-35.7h-36.411v35.7c-12.964 2.502-24.936 7.485-35.505 14.625l-25.108-25.173-25.734 25.669 25.152 25.216c-7.097 10.505-12.101 22.52-14.582 35.484h-35.657v36.39h35.656c2.481 12.921 7.507 24.936 14.603 35.484l-25.173 25.173 25.734 25.626 25.173-25.152c10.527 7.161 22.541 12.144 35.505 14.668v35.635h36.411v-35.656c12.942-2.481 24.936-7.507 35.484-14.625l25.152 25.152 25.734-25.648-25.195-25.173c7.118-10.505 12.123-22.541 14.625-35.505h35.678v-36.368zm-93.962 57.788c-21.894 0-39.669-17.688-39.669-39.604 0-21.894 17.774-39.69 39.669-39.69 21.916 0 39.604 17.774 39.604 39.69 0 21.937-17.732 39.604-39.604 39.604z"/></svg>