<svg fill="none" height="24" viewBox="0 0 24 24" width="24" xmlns="http://www.w3.org/2000/svg"><g stroke="#292d32" stroke-linecap="round" stroke-linejoin="round" stroke-width="1.5"><path d="m9.6 20h4.8c4 0 5.6-1.6 5.6-5.6v-4.8c0-4-1.6-5.6-5.6-5.6h-4.8c-4 0-5.6 1.6-5.6 5.6v4.8c0 4 1.6 5.6 5.6 5.6z"/><path d="m10.5 17h3c2.5 0 3.5-1 3.5-3.5v-3c0-2.5-1-3.5-3.5-3.5h-3c-2.5 0-3.5 1-3.5 3.5v3c0 2.5 1 3.5 3.5 3.5z"/><path d="m8.01001 4v-2"/><path d="m12 4v-2"/><path d="m16 4v-2"/><path d="m20 8h2"/><path d="m20 12h2"/><path d="m20 16h2"/><path d="m16 20v2"/><path d="m12.01 20v2"/><path d="m8.01001 20v2"/><path d="m2 8h2"/><path d="m2 12h2"/><path d="m2 16h2"/><path d="m12 9.69995-.94 1.64005c-.21.36-.04.66.38.66h1.12c.42 0 .59.3.38.66l-.94 1.64"/></g></svg>