<?xml version="1.0" encoding="utf-8"?>
<!-- Generator: Adobe Illustrator 25.0.0, SVG Export Plug-In . SVG Version: 6.00 Build 0)  -->
<svg version="1.1" id="Camada_1" xmlns="http://www.w3.org/2000/svg" xmlns:xlink="http://www.w3.org/1999/xlink" x="0px" y="0px"
	 viewBox="0 0 595.28 841.89" style="enable-background:new 0 0 595.28 841.89;" xml:space="preserve">
<style type="text/css">
	.st0{fill:none;}
	.st1{fill:#FFFFFF;}
	.st2{fill:#3761AB;}
</style>
<path class="st0" d="M257,38"/>
<g>
	<rect x="154" y="287" shape-rendering="crispEdges" class="st0" width="297" height="278"/>
</g>
<g>
	<g>
		<ellipse class="st1" cx="125.86" cy="422.68" rx="48.09" ry="49.3"/>
		<path class="st1" d="M466.48,474.62H254.26c-27.98,0-50.67-23.25-50.67-51.94l0,0c0-28.68,22.68-51.94,50.67-51.94h212.22
			c27.98,0,50.67,23.25,50.67,51.94l0,0C517.15,451.37,494.46,474.62,466.48,474.62z"/>
		<g>
			<g>
				<path class="st2" d="M125.86,489.34c-32.56,0-60.28-24.92-64.48-57.97l4.54-0.61c3.9,30.71,29.67,53.87,59.93,53.87
					c33.33,0,60.44-27.79,60.44-61.96c0-36.75,29.17-66.65,65.02-66.65h218.1c32.56,0,60.28,24.92,64.47,57.97l-4.54,0.61
					c-3.9-30.71-29.67-53.87-59.93-53.87h-218.1c-33.33,0-60.44,27.79-60.44,61.96C190.88,459.43,161.71,489.34,125.86,489.34z"/>
			</g>
			<g>
				<path class="st2" d="M540.09,413.2c0.36,4.86-3.19,9.11-7.93,9.48c-4.74,0.37-8.88-3.27-9.25-8.13
					c-0.36-4.86,3.19-9.11,7.93-9.48C535.58,404.7,539.72,408.34,540.09,413.2z"/>
			</g>
			<g>
				<path class="st2" d="M72.37,430.82c-0.36-4.86-4.5-8.51-9.25-8.13c-4.74,0.37-8.3,4.62-7.94,9.48c0.36,4.86,4.5,8.51,9.25,8.13
					C69.18,439.92,72.74,435.68,72.37,430.82z"/>
			</g>
		</g>
	</g>
</g>
</svg>
